<svg version="1" xmlns="http://www.w3.org/2000/svg" width="721.333" height="721.333" viewBox="0 0 541.000000 541.000000"><path d="M241.5 1.6C188.8 7.9 140.6 28 100 60.7 88.9 69.5 69.2 89.2 60.6 100c-17.5 22-35.4 53.5-44.4 78.5-5.3 14.6-10.7 36.2-13.3 53.8-3 18.9-3.2 54.9-.6 73.6 8.8 62.5 36.4 116.8 81.5 160.3 43.8 42.2 100.1 67.9 162 73.9 14.8 1.5 50 .6 64.2-1.6 103.1-15.8 187.3-87.6 218.8-186.5 7.5-23.6 11.1-46.1 11.9-73.5.6-23.2-.4-36.9-4.2-58.1-15-81.8-69.2-153.7-144.4-191.3-46.8-23.5-101-33.4-150.6-27.5zm55.8 21.9c46.3 5.4 90.2 23.1 124.2 50.1 15.1 12 14.3 11.1 12 13.3-1.1 1.1-5.1 3.7-9 5.8-6.8 3.7-7 3.9-7.3 8.1-.3 3.6 0 4.2 1.7 4.2 2.1 0 6.1 4.4 6.1 6.7 0 2.2 2.3 2.5 7 .8 2.3-.8 4.4-1.4 4.5-1.3.2.2.6 3 1 6.2l.7 5.9-7.4-.6c-9.9-.8-13.4.5-17.4 6.6-4.1 6.2-6.1 7.6-11.9 8.2-2.6.2-4.9.6-5.2.9-.3.2-.9 2.4-1.4 4.7-1 4.3-.2 6 3.4 7.2.5.1.7 1.6.3 3.3l-.7 3.1-11.5-.1c-11.2-.1-11.6 0-13.6 2.4-1.7 2.1-2 3.4-1.5 8.7 1.1 11 3.2 12.8 15.3 12.6 9.7-.1 11.7-1 14.5-6.6 1.2-2.3 4.4-6.8 7.2-10 4.6-5.4 5.1-5.7 8.3-5.1 2.7.5 4.3.1 7.5-2l4-2.7 4.2 3.8c2.3 2.1 7.3 6 11 8.7 6.5 4.6 6.7 4.9 5.1 6.7-.9 1.1-3 1.9-4.6 1.9-2.6 0-2.8.2-1.8 2 .7 1.4 2.1 2 4.3 2 4.7 0 7.5-2.3 7.5-6.2 0-1.8.2-3.9.4-4.7.2-.9-2.1-2.9-5.6-5.1-6.4-3.9-9-6.9-10-11.1-.5-2.4-.2-2.7 3-3.3 4.8-1 7.1 0 12.9 5.2 6 5.3 7.4 7.6 7.5 12 0 2.4 1.1 4.4 4.1 7.7 2.3 2.5 4.5 4.5 4.9 4.5.5 0 1.4-2.3 2-5.2 1.3-5.3 4.7-9.8 7.4-9.8 1 0 1.7 1.5 2.2 4.7 1.4 9.6 4.3 12.4 13.3 12.9 3 .2 6 .9 6.6 1.6.6.7 2.4 5.1 3.9 9.7 2.7 8.2 2.8 8.5 1 9.9-2.7 2-18.5 1.1-21.6-1.2-9.4-6.9-9-6.7-15.2-6.4-5.9.3-6 .3-6.9 3.8-1.3 5.1-2 5.4-6.8 2.9-2.4-1.2-8.9-3.4-14.4-4.8l-10-2.7-.3-6.8-.3-6.9-13.1.8c-10.2.5-14 1.1-17 2.7-2.6 1.4-7 2.3-13.9 2.8-9.1.7-10.6 1.1-15.7 4.3l-5.7 3.5v6.2c-.1 7.2.3 6.8-16.4 18.8-8.8 6.4-10.1 7.7-10.1 10.2 0 3.3 2.3 6 5.2 6 1.4 0 1.8.5 1.4 1.6-.3.9-.6 2.4-.6 3.5s-.9 2.7-2 3.6c-1.7 1.5-2 3-2 11.1 0 11.5.6 12.7 11.8 25.2 11.3 12.6 11.1 12.4 18.6 11.5 3.3-.4 9.6-.8 13.8-.9 6.4-.1 8.2-.5 10.9-2.5 4.9-3.6 11.9-3.5 15.8.3 2.4 2.3 4.3 3 10.8 3.8l7.9 1v12.2l-.1 12.1 7.9 13.8 7.9 13.8-4.8 9.9c-5.4 11.4-5.4 13.4.1 19.8 3.3 3.9 3.4 4.3 3.4 12.4 0 8.8 2 14.7 7.2 21.1 1.9 2.3 2.4 4.3 2.7 10.8l.3 7.9h2.9c1.6 0 2.9.4 2.9.8 0 1.6-12.5 15.5-22.6 25.3-34.6 33.4-83.3 56.7-134.9 64.5-16.3 2.5-51.2 2.5-67.6.1-53.5-8-104.5-33.6-143-71.9-58.3-58-83.7-143.9-66.8-226.1 2.1-10.1 9.1-32.5 12.5-40.2l1.8-4 .6 5.4c.5 4.2 1.2 5.9 3.3 7.7 1.6 1.3 3.4 2.4 4.1 2.4 2.1 0 2.9 2.9 3 11.7.1 7.4.5 8.8 4.1 16 3.2 6.3 4.7 8.1 7.8 9.6 3.1 1.6 4 1.7 5.3.6 2.1-1.7 1.2-4.6-3.6-12-4.4-6.8-6-11.4-6-17.2 0-3.4.2-3.7 2.9-3.7 2.7 0 2.9.3 3.5 4.9.9 6.9 2.9 11.3 9.2 20.3 5.9 8.4 5.9 8.7 4.3 13.3-1.1 2.9-.9 3.6 1.8 7.6 4.9 7 7.1 8.5 16.5 10.6 7.6 1.7 8.9 1.8 11.3.5 4.1-2.1 7.3-.9 7.7 3 .3 3.1.6 3.3 4.8 3.9 8.9 1.3 15 5.4 22.3 15.1 3.1 4.3 7.3 5.8 15.8 5.8 6.9 0 7.9 1 8.6 8.9.7 7.1-.9 10.3-6.2 12.8-4.6 2.2-6.1 6-6.9 17.4l-.6 9.6 7.5 9.4c4.2 5.1 8.5 11.4 9.6 13.9 1.1 2.5 2.4 5.1 2.7 5.9.4.7 3 2.2 5.7 3.2 2.8 1 7.5 3.9 10.6 6.4l5.6 4.4.6 20.7c.5 19.9.6 20.8 2.7 22.4 1.9 1.4 2.2 2.3 1.6 5.6-2.3 14.2-1.7 18.2 3.7 24.1 2.1 2.4 2.2 3.3 1.6 15.3-.3 7.1-.1 7.9 3.7 15 2.5 4.9 6.5 10.2 11.4 15.2 6.9 7 8 7.7 13.2 8.8 8.3 1.6 11.2 1.1 11.6-2.1.3-2.2-.5-3.3-4.2-6-2.5-1.7-4.8-4-5.1-5-.3-1 .1-4.3 1-7.3.9-3.1 1.4-6 1.1-6.5-.3-.4-1.8-1.1-3.4-1.4-1.5-.3-3.9-1.5-5.3-2.6l-2.4-1.9 2.6-2.9c1.5-1.5 3.2-3.8 3.8-5.1 1-1.9.9-2.3-1.2-3.1-1.2-.5-2.8-1.6-3.5-2.4-1.8-2.1.8-3.7 12.1-7.8 5.1-1.8 10.1-4 11.3-5.1 1.1-1 6-7.4 10.8-14.3l8.8-12.6-.7-6.2c-1.1-10.5-1-12.2 1.4-15.5 2.1-3 2.6-3.2 8.7-3.2 7.3 0 10.9-1.5 14.6-5.9 2.2-2.6 2.7-4.5 3.7-16.3 1.2-13.1 1.3-13.4 5.2-19.1 4.9-7 8.9-15.5 8.3-17.2-.3-.7-2.1-1.6-3.9-1.9-2.1-.4-4.3-1.8-5.7-3.7-7.1-9.1-5.6-8.4-16.5-8.5-9.7 0-13.5-.8-22.5-4.6-4.9-2.1-6.8-5.1-6.8-10.8 0-6.5-6.1-14.7-10-13.5-5.5 1.7-13.9-3.1-18.2-10.5-1.1-1.9-3.3-4.5-4.9-5.8l-2.9-2.3-2.9 2c-6.2 4.4-12.3 4-17.5-1.3-2.5-2.4-4.9-3.6-9.3-4.5-7.6-1.6-9.7-1-13.4 4.2-5.4 7.5-10.8 9.2-20.3 6.5-6.8-1.9-7.4-2.8-8.1-13.8l-.7-9.9-6.9-1.1c-3.8-.7-6.9-1.6-6.9-2.1 0-.6.9-2.7 2-4.9 1.7-3.4 2.8-11 1.6-11-.3 0-4.7 2.7-9.8 6-9.5 6.2-11.6 6.7-18 4.9-7.6-2-8.7-9.6-3.3-21.6 4.4-9.5 5.2-10.4 12.9-14.5 5.9-3.1 6.6-3.3 19.9-3.6 15.2-.4 16.4-.1 16.9 5.1.2 2.3 1.2 3.8 3.7 5.4 5.5 3.7 6.1 3.2 5.8-4.7-.2-6.9-.2-7 3.8-10.9 2.2-2.2 7.2-6.2 11-8.8 5.8-4 7.2-5.5 8.3-9 1.6-5.1 15.9-19.3 24.2-24 3-1.7 8.1-5.9 11.3-9.2 5.9-6.3 7.3-6.9 10.9-5 1.6.9 2.4.8 3.6-.5 1.5-1.4 1.3-1.7-1.6-2.7-4.3-1.5-5.6-3.9-3.6-6.7 2.2-3.2 7.8-3 10 .3 1 1.5 2.6 2.5 4 2.5 2.7 0 9.5-2.6 10.4-4 .3-.4 1.3-.2 2.4.5 1.8 1.3 1.8 1.5-.4 5-1.2 1.9-2 4.1-1.7 4.8.6 1.5 14.5 6 15.8 5.1 1.5-.9 1-4-.8-5.5-1-.8-3.5-2.2-5.5-3.2-4.7-2.1-4.8-4.2-.4-6.1 6.6-2.7 7.6-9.1 2-12.1-4.5-2.4-5.7-4.6-6.4-11.7l-.5-5.6-8.4 3.4c-4.7 1.9-8.6 3.4-8.8 3.4-.2 0-.1-2.9.3-6.4l.6-6.3-7.2-1.7c-10-2.2-11.4-2.1-14.4 1.5-2.3 2.7-2.6 4-2.6 10.4 0 8-.5 8.9-6 10-5.3 1.1-8 3.2-10.2 8.1-1.9 4.4-4.9 6.7-7.5 5.7-.7-.3-1.3-3-1.5-6.5l-.3-6-7.8-2.8c-4.3-1.5-8-2.9-8.2-3.2-.2-.2-1.3-2.4-2.4-4.8-1.5-3.4-1.7-4.8-.8-5.8 1.1-1.4 30-16.2 31.6-16.2.5 0 1.2 1.6 1.5 3.5.6 2.8 1.1 3.5 3 3.5 1.3 0 2.6-.7 3-1.5.3-.8 1.7-2 3.1-2.5 2.5-.9 2.5-1.1 1.1-3.9-1.5-2.8-1.5-2.9 1.7-3.4 1.8-.3 5.5-1.9 8.4-3.7 5.6-3.5 10.6-5 16.8-4.9 3.1 0 4.8.7 7.3 3 1.9 1.7 3.2 3.2 3 3.3-.1.2-4.1 2.3-8.7 4.8-4.5 2.5-7.9 4.8-7.5 5.1.5.2 5.3 1.5 10.8 2.7 10.1 2.3 11.5 2.1 11.6-1.7 0-2.1 4.4-4.3 8.7-4.3 3.2 0 4.5-.5 5.3-1.9 1.5-2.9 1.3-3.6-2-4.8-2.4-.9-3.1-1.8-3.6-5.3-.6-3.5-1.4-4.6-4.8-6.7-2.3-1.5-6.8-3.7-10-5-9.5-3.9-22.6-3.1-30.5 1.8-1.8 1.2-2.1 2.3-2.1 7.3v5.9l-4.2-.7c-7.9-1.2-8.9-6-2.6-11.8l4.1-3.8h-9.1c-7.5 0-9.5.3-10.7 1.7-2.2 2.5-2 3.7.7 4.3 2.6.7 3.6 4.3 1.8 6.6-.8.8-3 1.4-5.6 1.4-3.3 0-4.7.5-5.6 2-1.1 1.7-2.4 2-9 2-6 0-7.8-.3-7.8-1.4 0-.7-.3-2.8-.6-4.5-.6-3-.6-3.1 2.3-2.5 4.8.9 10.8-1.2 14.2-5.2 1.7-1.9 2.9-3.9 2.6-4.5-1.1-1.7-4.1-.9-6.3 1.6-1.2 1.3-3.3 2.7-4.7 3.1-3.5.9-9.4-.4-11-2.4-.8-.9-2.2-2.8-3.3-4.1-1.5-1.9-3.1-2.5-7.5-2.9-6.2-.5-11.4 1.5-17.7 6.8l-3.5 2.9 6.3.1h6.2l-.6 4-.7 4h6c6.1 0 8.3 1.1 8.3 4.2 0 1.6-.9 1.8-7 1.8-5.9 0-7.2-.3-9.2-2.3-3-3.1-16.9-7.7-23.3-7.7l-5-.1 4.9-4.4c9.4-8.4 32.5-19.6 61.1-29.4 22.4-7.8 38.9-11.6 57.5-13.4 9.8-1 37-.5 48.3.8zM138.1 86.3c-.5.5-3.3 1.2-6 1.5-5.5.5-8.1-.7-8.1-3.9 0-2 .9-2.3 9.5-3.7 5-.8 5-.8 5.3 2.1.2 1.6-.1 3.4-.7 4zm1.2 9.3c.3 2-.1 2.7-2 3.5-4.6 1.7-12.3.7-12.3-1.6 0-1.1 6.1-3.1 13.1-4.4.4 0 .9 1.1 1.2 2.5zm319.1 12.2c2.5 2.9 4.6 6.1 4.6 7.1s-1.1 3-2.5 4.5c-2.2 2.4-3.1 2.6-9.8 2.6-5.3 0-7.8-.4-8.7-1.5-1.5-1.8-.7-3.1 3.4-5 3.9-1.9 5.8-5.1 6.2-10.2.1-2.1.2-4 .3-4.3.1-.5.3-.3 6.5 6.8zm-299.5 13.1c3.2 2-1.5 10.1-5.9 10.1-1.7 0-5-4.8-5-7.3 0-2.7 7.7-4.8 10.9-2.8zm21.1 19.3c1.1 1.2 2 3.3 2 4.6v2.5l-9.6-.5c-5.2-.3-10-1-10.5-1.5-1.7-1.7 2.8-5.1 7.8-5.8 4.5-.6 7.5-1.1 8-1.4.1 0 1.1.9 2.3 2.1zm-119.5 2c-.4 1.3-1.7 3.4-2.9 4.8-1.1 1.4-2.2 2.7-2.3 2.9-.2.2-.6.2-.9-.2-.8-.7 4.5-9.7 5.8-9.7.5 0 .6 1 .3 2.2zm125.4 6.4c4.6 1 4.2 4.4-.9 7.3l-4 2.2v-5c0-5.4 0-5.4 4.9-4.5zm-11.1 1.2c-.1.4-2.1 3.4-4.3 6.5-3.3 4.7-4.5 5.7-6.5 5.5-2-.2-2.6-.9-2.8-3.6-.5-4.8 4.2-9.2 9.8-9.2 2.3 0 4 .4 3.8.8zm23.7 6.2c2 .7 2.6 1.6 2.3 3.3-.2 1.7-1.1 2.3-3.6 2.5-4.2.4-6.2-1.2-6.2-5 0-3.2.9-3.3 7.5-.8zm-11.5 4.9c0 4.1-2.4 6.1-7.1 6.1-3.1 0-3.9-.4-3.9-1.8 0-2.4 2.9-5.1 6.6-6.2 4.3-1.3 4.4-1.2 4.4 1.9zm308.5 3.9l2.3 5-2.1.6c-4.5 1.2-4.7.9-4.7-6.1 0-7.6.8-7.5 4.5.5z"/><path d="M387.4 108.5c-2.9 2.9-2.3 5 2.6 8.5 5.1 3.6 5.6 5.6 2 8.6-1.8 1.5-3 3.5-3 4.9 0 2 .6 2.5 4.3 3 5.5.8 12.2-.9 14.1-3.7 1.4-1.9 1.3-2.2-1.7-4.2-4.2-2.8-7.4-7.8-9.3-14.3-1.3-4.6-1.9-5.3-4-5.3-1.4 0-3.6 1.1-5 2.5z"/><path d="M377.6 118.9c-4.6 3.1-7.4 9.9-4.6 11.6 1.2.7 8.7-3 11.8-5.8 5.9-5.4-.3-10.3-7.2-5.8zM249.1 149c-1.3 1.1-3.4 2-4.7 2-2.6 0-3 1-1.2 2.8 2.1 2.1 4.3 1.3 8.3-2.8 3.2-3.3 3.6-4 2-4-1.1.1-3.1 1-4.4 2zM232.6 153.9c-2.1 2.3-.6 3.6 2 1.6 1.4-1 1.6-1.7.8-2.5-.7-.7-1.5-.5-2.8.9z"/></svg>