<svg version="1" xmlns="http://www.w3.org/2000/svg" width="564" height="564" viewBox="0 0 423.000000 423.000000"><path d="M145 84.2c-1.4.5-8.6 1.3-16.1 1.7-7.5.4-14.1 1.1-14.7 1.5-.6.3-1.8-.1-2.6-1-1.1-1-2.3-1.3-3.4-.8-.9.4-2.4.9-3.2.9-.8.1-2.1.3-2.8.4-.9 0-1.1.8-.7 2.1.4 1.2.2 2-.5 2s-1.4-.8-1.7-1.8c-.7-2.7-7.3-1.8-6.8.9.5 2.5-2.1 2.5-3.4 0-.6-1-.7-2.1-.4-2.5 1.3-1.3-3.3-.5-5.1.9-1.1.8-3.5 1.5-5.4 1.5-1.9 0-3.1.4-2.7 1 .4.6-.5.7-2.3.4-3.9-.8-13.1 1.2-15.4 3.3-1 .9-1.8 1.2-1.8.6s-1.1-.8-2.5-.5c-1.4.2-2.5.9-2.5 1.4 0 .5.5.6 1 .3.6-.3 1-.1 1 .4 0 .6-.3 1.1-.7 1.2-.5 0-1.5.2-2.3.4-6 1.3-8.9 1.8-11.5 1.9-2.5.1-3.1.6-3.3 3-.2 1.8 0 2.6.7 2.1.6-.3.9-1.1.6-1.6-.4-.5.5-.9 1.9-.9s2.6.4 2.6 1c0 .5.9 1 1.9 1 1.1 0 2.3-.5 2.6-1 .9-1.4 4.8-1.3 6.3.2.8.8 1.2.8 1.2.1 0-1.3 5.2-1.2 6.3.2.5.6.7.3.3-.8-.3-.9-.3-2.3 0-3.1.8-2 3.9-1.3 3.9.9 0 2.5 1.9 2.9 3.9 1 1.4-1.4 1.8-1.5 3.1-.2 1.2 1.3 1.2 1.6-.7 2-1.7.5-1.9.9-1 2 1.6 1.9.5 2.7-3 2-1.9-.4-3.3-.1-3.8.7-.4.7-2.4 1.4-4.4 1.6-2 .2-3.5 0-3.2-.4.9-1.5-1.2-3.5-2.9-2.8-1.4.5-1.5.9-.5 2.1 2.3 2.8 4.9 8.7 4.3 10.1-.4 1-5.6 4.4-6.8 4.4-.2 0-.6-1.1-.9-2.5-.4-1.4-1.1-2.5-1.6-2.5-1.6 0-1.1 4 .5 4.6.8.4 1.5 1.2 1.5 2 0 1 .8 1.2 3 .7 2-.3 3-.1 3 .6 0 .8-.8 1-2 .6-2.6-.8-2.6 1 0 2.8 1.8 1.2 1.8 1.5.5 2-2.4 1-1.7 2.6 1 2.2 2.8-.3 3.2.7 1.1 2.5-.8.6-1.2 1.8-.9 2.6 1.2 3.2-1.7 1.1-3.4-2.4-.9-2-2.2-4-2.7-4.4-.6-.4-.7-.8-.3-.8 1.5 0-2.1-3-3.7-3-2.1 0-3 1.8-1.6 3.5.7.9.8 1.5 0 2-1.5.9-3-.3-3-2.7 0-1.5-.5-1.9-2-1.5-1.1.3-2 .1-2-.4s1.2-.9 2.6-.9c3 0 6.4-1.6 6.4-3.1 0-.7-1-.9-2.6-.5-2.1.6-2.5.4-2.1-.8.3-.8-.1-1.7-.9-2-2.2-.8-2.2-.8-2 1.1.1 1.9-4 3.1-5.4 1.6-1.3-1.4-2.1-6.3-1-6.3.5 0 1 .6 1 1.4 0 3.8 4.8 2.2 5.4-1.8.1-1 .9-2.2 1.7-2.7.8-.5 1-.9.4-1-.5 0-1.8-.2-2.8-.4-.9-.2-1.7 0-1.7.4 0 .9-6.8.7-7.7-.2-.3-.4.2-.9 1.1-1.3 2.7-1 1.8-2.3-1.4-1.9-1.6.2-3-.1-3-.6s-1.1-1.1-2.5-1.5c-2.5-.6-5.5.9-5.5 2.8 0 .6.6.5 1.4-.2 1.2-.9 1.8-.7 3.2.9 1.3 1.5 2.2 1.8 3.6 1 1.2-.6 1.8-.6 1.8.1 0 .5-.4 1-1 1-1.5 0-.7 5.1 1.2 8 2.6 3.9 3.4 9.8 1.4 10.6-.9.3-1.3 1.1-.9 1.7.4.6 1.1.4 1.8-.7 1.9-2.5 3.7.2 2.6 4-.4 1.6-.4 3.8 0 4.9.4 1.1 1 2.8 1.3 3.8.5 1.6.8 1.7 3.6.2 2-1.1 3.6-1.3 4.7-.7 1.5.9 1.4 1.1-.3 1.9-1 .6-2.7.9-3.6.8-1.4-.3-1.8.4-1.8 2.4 0 1.7-1.1 4-3 5.9-1.6 1.8-3 4.1-3 5.2 0 2.6 1.2 2.6 2.8 0 1.4-2.3 4.2-2.7 4.2-.5 0 .8-.8 1.5-1.9 1.5-3 0-4.3 2.3-3.1 5.6.6 1.6 1.1 3 1.1 3.1-.4 1.5.2 2.1 1.4 1.7.8-.4 1.5-1.5 1.5-2.6 0-1.2-.4-1.7-1.2-1.2-.6.4-.8.3-.4-.4.7-1.1 5.1-1 6.2.1.4.4-.4 1.5-1.7 2.6-1.3 1.1-1.8 2-1.1 2.1.6 0 1.2.9 1.2 2.1 0 1.4.5 1.9 1.4 1.6 1-.4 1.3-.1.9.9-.6 1.7.6 1.8 2.9 0 1-.7 1.4-1.7 1-2.1-.4-.5.1-.5 1.1-.2 1 .4 2.3.7 2.8.7s.9.6.9 1.4c0 .8.8 1.6 1.7 1.8 1.3.2.8.9-2 2.5-2 1.2-3.7 2.6-3.7 3.1 0 .7-3.9.8-4.7.2-1-.8-3.2-.4-5.8 1.1-5.4 3.1-15.1 4.4-15.9 2.2-.6-1.4-3.1-.8-5.6 1.3-.8.7-3.7 1.6-6.4 2.1-3.5.6-5 1.3-5.2 2.6-.1.9.2 1.7.7 1.7.6 0 .7.6.2 1.2-1.9 3.2.7 5.7 3.8 3.7.8-.5 2.4-.9 3.7-.9 1.2 0 2.2-.5 2.2-1 0-.7.6-.7 1.8-.1 1 .5 3.7.8 6 .7 3.8-.3 4.2-.1 4.7 2.5.4 1.6 1.1 3.2 1.7 3.5.7.4.8.2.4-.4-.4-.7-.3-1.2.2-1.2 1.6 0 2.4-3.3 1.1-4.1-1.7-1-2-3.9-.6-4.4 4.8-1.4 6.7-1.4 8.3.2 1 1.1 1.9 1.3 2.1.7.2-.6 1.7-.8 3.3-.6 2.2.3 3 0 3-1.1 0-1.8 5.2-3.8 7.1-2.7.7.5 1.7.6 2.1.4 1-.7 4.2 2.4 4.4 4.3.2.8 1.8 2.9 3.7 4.6 3.4 3.1 5.8 8.7 3.7 8.7-.5 0-1 .6-1 1.4 0 .7-.9 1.6-2 1.9-2.9.7-2.5 2.4.7 3 1.8.3 3.4 0 4.6-1.1 1.3-1.2 2-1.3 2.9-.4.8.8.5 1.4-1.4 2.1-2.5.9-10.4 3.2-12.3 3.5-.5.1-1.5.5-2.2.9-.6.4-1.8.4-2.7.1-.8-.3-3.1 0-5.1.6-5.2 1.7-6.8 1.9-8.8.8-1.6-.8-2.2 0-1.8 2.4.2 1.4-2.7.8-3.2-.6-.7-1.7-2.8-1.6-5.1.3-.8.7-2 1-2.5.7-.5-.4-1.4.1-1.9 1.1-.7 1.2-1.4 1.4-2.4.7-1.7-1.4-9.7-1.1-12.6.5-1.2.6-2.7.9-3.2.6-1.9-1.2-1 1.8 1.2 3.6 2.5 2.3 3.5 2.3 7.1.5 2.1-1.2 2.7-1.2 2.7-.2 0 .9.9 1.2 2.5.9 1.3-.3 2.4-.8 2.3-1.2-.2-2.1.4-3.1 2.1-3.1 1.1 0 2.3.4 2.6 1 1 1.7 4.4 1.1 6.5-1 1.4-1.4 2.5-1.8 3.6-1.2.9.5 3.4.6 5.5.2 2.2-.4 5.3-.6 6.9-.4 1.7.2 3-.1 3-.6s.7-.6 1.7-.3c1.1.4 1.4.3.9-.5-.4-.7-.1-1.2.8-1.2.8 0 1.8.5 2.1 1 .5.7 1.1.8 1.9.1.6-.5 4.2-.9 7.9-.7 3.8.1 7.1-.2 7.4-.7.3-.4 1.1-.6 1.8-.3.7.2 2.5-.2 4.1-1.1 1.6-.8 5.2-1.6 7.9-1.7 2.8-.1 7-1.1 9.5-2.2 2.5-1.2 5-1.8 5.5-1.3.9.7 13.5.4 18-.4 8.9-1.6 10.6-2.1 11.6-3.3.8-1 1.6-1 3.5-.2 1.7.8 3.4.8 5.9.1 1.9-.6 3.5-.7 3.5-.3 0 .4 1.6.3 3.6-.3 2.7-.8 3.7-.8 4.3.2 1.2 1.8 1.3 1.8 4.9-.8 3.1-2.2 3.5-2.2 5-.7 1.5 1.5 1.5 1.6-.1 1.6-1 0-2.2 1.2-2.8 2.6-.9 2.5-1.1 2.6-2.8 1-2-1.8-3.1-1.2-3.1 1.7 0 1.8-.2 1.8-2.2.4-1.3-.8-2.2-2-2.1-2.6.4-1.7-6-.1-8 2-1.1 1.2-1.3 1.9-.5 1.9.9 0 .9.3.1 1.1-.7.7-2 .8-3.4.3-1.3-.4-2.7-.8-3.1-.9-.3 0-1-.3-1.4-.8-1-1-4.4-.9-4.4.1 0 1.7 1.3 2.2 2.7 1.1 1-.9 1.3-.8 1.3.5 0 1.6-.4 1.7-4.8 2-1.2 0-2.6.5-3 1.1-1.1 1.5-3 1.7-5.3.4-3.4-1.8-6.2-2-5.6-.4.3.7-.1 1.9-.9 2.6-1.2.9-2 .9-3.9-.1-3.1-1.7-5.5-.7-4.8 1.9.5 1.8.1 2.1-2.8 2-1.9 0-2.9-.3-2.2-.5 2-.9.2-3.4-2.3-3.4-1.3 0-2.3.3-2.3.7.4 2.2-.3 3.3-1.9 3.3-1 0-2.8.9-4 2-2.7 2.6-3.5 2.5-4.7-.2-1.4-3.3-3.7-3.3-6.9-.1-2.1 2.1-2.9 2.4-3.6 1.4-.5-1-1.9-1.1-4.6-.7-2.2.4-5.1.7-6.6.7-3 0-3.8 1.6-1.2 2.6.8.3 1.3 1.1 1 1.8-1 2.6 2.4 2.5 3.6-.1 1.3-2.9 5.5-3.1 5-.2-.2 1.4.6 1.6 5.5 1.3 3.2-.2 5.9-.8 6.1-1.3.2-.6.9-.9 1.7-.6.8.3 1.1 1.2.9 1.9-.3.7 0 1.6.7 2.1.7.4 1.5.2 1.7-.4.5-1.6 2.3-1.5 4.6.3 1.9 1.5 1.9 1.5-.5 1.5-7.8-.1-9.6.5-7.8 2.6.9 1.1 2.2 1.4 5.3.8 2.3-.3 4.5-1.2 4.9-1.8.6-.8 1-.8 1.3 0 .7 1.6 5.4-.6 5.4-2.4 0-.7-.4-1.1-.9-.8-.5.3-1.5-.2-2.2-1.1-.8-1-.9-1.4-.2-1 .6.4 1.4.3 1.8-.3.4-.6 1.6-.4 3.1.7 2.2 1.4 2.7 1.4 3.4.2.7-1.1 1.2-1.1 2.1-.2 1 1 .9 1.4-.4 1.9-.9.3-1.7 1.4-1.7 2.4s-.9 2-2 2.3c-1.4.3-1.8 1-1.4 2.1.5 1.2 1.3 1.4 2.8.9 2-.7 4.9-.8 7.1-.3 3.7.8 6.3-.2 6.9-2.6.7-2.8 0-4.5-1.2-2.8-1.1 1.5-6.5 1.7-5.9.1.2-.6 1.1-1.1 2.1-.9.9.2 1.6-.2 1.6-.8 0-.6 1-.8 2.5-.4 1.4.3 2.5.2 2.5-.3 0-.6 2.2-.8 5.1-.6 3 .2 4.8 0 4.5-.6-.8-1.2 1.1-2.4 2.4-1.6.7.4.7 1.2 0 2.5s-.6 2.1.5 3c2.3 1.9 1.9 4.2-.7 3.8-1.5-.2-2.2.2-2 1 .1.8-.7 1.6-1.8 1.9-1.1.3-2 1-2 1.5 0 .6-1.3.8-3 .6-1.6-.2-3.1-.1-3.2.3-.5 1.3-6.8 2-8.6 1-1.2-.7-2.2-.5-3.3.4-.8.8-2.4 1.6-3.5 1.8-1 .1-2.3.5-2.9.8-.5.4-2.1.5-3.5.4-1.4-.1-2.9 0-3.5.3-.5.4-1.9.7-3 .8-4.9.5-7.1 1.5-9.2 4.1-1.7 2-2.3 2.3-2.3 1.2 0-2.4-2.6-3-4.4-1-2.2 2.5-1 6.4 1.8 5.7 1.1-.3 2.8-.6 3.7-.6.9 0 1.9-.9 2.2-2 .6-2.3 2.7-2.7 2.7-.5 0 1.7 1.6 2 2.5.5.3-.6 3-1 5.8-1 4.6 0 5.5-.3 7.8-3.1 2.4-2.9 2.6-3 4.2-1.4 1.3 1.3 2.7 1.5 6.4 1 6.7-1 9.5-1 11.6-.1 1 .5 1.7.5 1.6 0-.6-3.6 2.5-5.3 5.3-2.7 1.2 1 3.6 1.7 6.7 1.7 5.7.1 7.2 1.1 4.6 3-2 1.5-.7 3 1.9 2 1-.4 1.6-1.8 1.6-3.8 0-2.8.3-3.2 2.3-3 1.2.1 2.3.3 2.4.3.1.1-.2 1.2-.7 2.6-.8 2-.6 2.7 1.2 3.6 1.1.6 3.9.9 6 .6 3.2-.4 3.8-.3 3.4 1-.3.8-.6 1.7-.6 1.9 0 .2-1 .2-2.3-.1-1.2-.3-3.5.1-5.1.9-3.2 1.6-6.8.3-5.9-2.1.3-.7-.2-1.3-1.2-1.3-1.1 0-1.5.6-1.1 1.8.9 2.7-3.1 4.5-11.8 5.1-.4.1-.6.7-.3 1.5s-.1 2-.8 2.6c-1.2 1-1.6.8-2.3-1.1-.5-1.3-1.1-1.8-1.6-1.1-.3.6-.1 1.4.5 1.7.7.5.3 1.2-1 2.2-3.3 2.3-2.4 3.3 1.4 1.7 4.3-1.7 4.5-1.7 4.5.1 0 1.1.5 1.2 2.4.5 1.3-.5 2.7-.6 3-.3.3.4.6.2.6-.3s3.3-1 7.3-1.1c9.8-.2 16-1.1 20.7-3 1.3-.6 3.2-.8 4.3-.5 3.2.8 1.2 2.7-3.7 3.4-2.6.3-5.4 1.2-6.2 1.8-1.6 1.4-2 4.5-.4 3.5.5-.3 1-.2 1 .4 0 .6.6.9 1.3.7.6-.3 2.5-.7 4.1-1.1l2.8-.6-2.1 2.7c-3.4 4.4-1.1 5.4 5.3 2.3 2-.9 3.1-1 3.3-.3.2.6 1.5.9 2.8.6 1.8-.3 2.5 0 2.5 1.2 0 .9-.3 1.7-.7 1.7-.5.1-2.4.3-4.3.5-2.2.2-4.2 1.3-5.5 2.9-1.7 2-3.2 2.6-7.8 2.9-4.9.3-6.1.1-7.7-1.6-1.9-2.1-4-1.7-4 .6 0 2.1-6.6 4.7-11.3 4.5-4.1-.2-8.8 1.1-11.4 3.3-.7.6-2.8 1.2-4.6 1.3-10.4.7-19.7 4.6-19.7 8.2 0 1.2.3 1.3 1.5.3.8-.6 1.9-.9 2.4-.6.5.4 1.2.2 1.6-.3.3-.5 1.3-1 2.3-1 1.9.1 10.2-1.4 12.2-2.1.3-.1 2-.1 3.8 0 1.8.1 3.2-.3 3.2-1 0-.6.4-.9.8-.6.4.3 2.6.1 4.8-.4 3.4-.8 12.8-2.5 25.2-4.7 2.4-.4 3.2-.2 3.2.9 0 1.2 1.4 1.4 8 1.1 8.2-.5 10 .4 6 2.9-1.1.7-2 1.9-2 2.7 0 1.1-.4 1-1.4-.4-1.3-1.8-1.4-1.8-2 .3-.8 2.4 0 4.5 1.5 3.7.5-.4.9-.2.9.4 0 .6 1.1.7 2.8.2 3.8-1 5.5-.8 6 .7.2.8-.5 1.2-2.5 1.1-1.5-.1-4.6.5-6.7 1.5-5.7 2.4-22.4 6.6-26.4 6.6-1.8 0-4 .6-4.8 1.4-2 2.1-1.7 2.8.8 2 3.2-1 12.1-1.2 13.3-.3 1.1.8 3 .7 5.7-.5.9-.4 2.1-.5 2.7-.2 1.4.9 4.1-.4 4.1-2 0-.8.9-1.4 2-1.4s2 .7 2 1.5c0 1.2.4 1.3 1.8.7.9-.6 3.6-1.3 5.8-1.6 3.3-.6 4.3-.4 4.7.8.9 2.2 3 2 2.4-.3-.4-1.5.4-2 4.5-3 6.4-1.4 7.1-1.4 6.5.3-.3.8 0 1.7.7 1.9 1.5.6 4.6-2.7 4.6-4.9 0-1.2.8-1.4 3.8-.8 2 .3 4.2 1.2 4.8 2 .9 1.1 1.7.9 4.2-1.6 2.6-2.5 3.6-2.8 5.5-2.1 1.6.6 2.8.6 3.6-.2 1.3-1.3 4.2-1.9 9.3-2.1 3.8-.1 5.4 1.6 2.1 2.2-3.7.8-3.7 2.2 0 2.2 2 0 3.7-.5 3.7-1.1 0-.7 1-.9 2.4-.5 1.4.3 2.7.2 3-.3.6-.9 5.3-.8 7.6.3 2.5 1.1 19.2 0 22.5-1.4 1.7-.8 4.8-1.5 7-1.5 2.1-.1 4.1-.7 4.3-1.3.2-.6.9-.9 1.6-.6.8.3 1.6-.2 1.9-1 .7-1.7.7-1.7-9.4-2-3.1 0-6.3-.7-7.2-1.5-1.4-1.1-2-1.1-4.1.2-2.1 1.4-2.5 1.5-3 .1-.6-1.5-.7-1.5-11.1.2-1.1.1-3.1.6-4.5.9-3.4.7-13.4 1.7-19.2 1.8-2.7 0-4.8.3-4.8.7 0 .3-2.1.6-4.7.7-4.2 0-7.8.4-18.3 1.7-1.4.2-2.9.5-3.5.6-2.2.5-4.2-.1-4.2-1.3 0-.6-.3-1.9-.5-2.7-.3-.8-.3-1.2-.1-.7.3.4 1 .4 1.6 0 .7-.4 2.3-.9 3.7-1.1 3.2-.4 4.4-1.7 3.6-3.7-.4-1.3-1.3-1.5-3.2-1.1-1.7.5-2.3.3-1.9-.4.3-.5 1.5-1 2.6-1 1 0 1.9-.5 1.9-1.1 0-.8.5-.8 1.5.1.8.7 2.2 1 3 .6 1.1-.4 1.5.1 1.5 1.9 0 2.7 1.1 3.1 4.1 1.4 1.5-.8 2.4-.7 3.5.2 1.3 1 1.7 1 2.4 0 .4-.8 1.6-1.1 2.9-.6 1.3.4 2.8.2 3.6-.5 1.1-.9 2.3-.9 4.5-.2 1.6.6 3 .8 3 .4-.1-1.3-2.7-4.2-3.9-4.2-1.7 0-1.3-1.1 1.5-3.6 2.5-2.4 4.5-3.1 4.3-1.7-.4 2.5.5 3 5.1 2.9 2.7-.1 5-.6 5-1.1 0-.6 1.6-1.1 3.6-1.2 2-.1 4.2-.7 4.9-1.3 1-.9 1.9-.6 3.5 1 1.5 1.5 3 2 4.7 1.7 1.9-.3 2.7 0 3 1.3.3 1 1.1 2.1 1.8 2.4.8.3 1.2 0 1-.7-.6-1.6.5-3.1 3.2-4.6 1.5-.7 2.4-.8 2.8-.1.4.6 1 .8 1.5.5.5-.3 2 .1 3.3 1 1.3.8 2.6 1.2 3 .9.3-.3 4.2-.8 8.7-1 6.1-.3 8-.1 7.4.7-.5.9-.1 1 1.4.7 1.3-.4 2.2-.1 2.2.4 0 .6.8.4 1.8-.5 2.7-2.4 7.2-2.2 7.2.2 0 1.1-.5 2.3-1 2.6-1 .6 2.7 5.4 4.3 5.5.4 0 .7-1.5.7-3.3v-3.2l10.2.3c23 .5 27.3 1.2 29.9 4.5 1.7 2 5.7 1.8 4.4-.3-.3-.5 0-1 .7-1s1.8 1.1 2.5 2.5c1 2.3.9 2.5-1.2 2.5-2.8 0-4.3 1.9-2.5 3 .8.5-.6.8-3.1.9-2.4 0-5.1.1-5.9.1-1.8.1-4.1-.4-5.5-1.1-.5-.3-2.9-.5-5.3-.4-2.3.2-4.5-.1-4.8-.6-.3-.5-1.2-.5-2.2 0-.9.5-2.6.5-3.7.1s-3.5-.3-5.4.1c-1.9.4-3.9.6-4.3.3-.4-.3-.8 0-.8.6s-.4.8-1 .5c-3.6-2.2-6.7-.5-5.4 2.9 1.2 3 8.9 4.3 10.3 1.8.6-1 1.1-1.2 1.1-.5s1.2 1.3 2.6 1.3c1.6 0 2.3-.4 1.8-1.1-.3-.6.5-.3 1.9.6 2.4 1.5 2.8 1.5 4.9.1 2.1-1.5 2.4-1.5 4 .6 1.7 2.3 1.7 2.3 3.3.3.9-1.1 1.4-1.5 1.1-.8-.7 1.2 3.1 2.9 4.1 1.9.4-.3 1.3-.1 2 .6 1.1.9 1.6.9 2.3-.1.6-1 .9-1 1.5-.1.4.6 1.3.9 2 .6.7-.2 1.6.1 1.8.8.5 1.2 2.7 1.5 23.2 3.3 3.9.3 7.3 1 7.6 1.5.3.5 5 1.1 10.5 1.3 5.4.3 11.9.7 14.4.9 2.5.2 5.2 0 6-.5 1.1-.6 1.1-.8.2-.9-.7 0-1.1-.4-.8-.9.6-.9-8.1-10.1-9.5-10.1-1.2 0-1.1 1.7.1 2.5.6.3 1 1.1 1 1.6 0 1.4-7.2 0-9-1.8-1.3-1.3-1.2-1.3 1.3-.7 2.5.6 2.8.4 2.5-1.2-.2-1.4-1.2-1.9-4.2-1.9-2.5-.1-4.1-.7-4.7-1.8-.8-1.4-1.3-1.5-2.9-.4-2.1 1.2-5 .2-5.7-2-.6-1.7 5.7-4.5 7.3-3.2 1.5 1.3 20.4 2.2 20.4 1 0-.5-1.4-1.4-3.1-2-1.7-.6-3.3-2-3.6-3.1-.4-1.5-1.1-1.9-2.4-1.5-1.3.4-1.9.1-1.9-.9 0-2.1-1.3-2.7-6.8-3.2-2.6-.3-6.1-.6-7.8-.8-1.7-.2-3.5-.6-4-.9-.6-.3-2.2-.4-3.7-.3-1.5.2-3-.1-3.3-.5-.3-.5-1.8-.7-3.4-.4-1.9.3-3.4-.1-4.6-1.2-1.2-1.2-1.9-1.4-2.1-.6-.3.9-1.1.9-3.1.1-2.6-1-3.9-1.2-12.9-1.9-2.7-.2-4.3-.8-4.3-1.6 0-.7-.5-1.3-1.1-1.3-.5 0-.7.5-.3 1.1.5.8-1.5 1-7.2.5-10.4-.8-45.2-1-53.1-.3-3.7.4-6.3.2-6.3-.3 0-.6-.9-1-1.9-1-3 0-5.1-1.1-5.1-2.6 0-1.7-2.6-1.9-3.6-.2-.5.7-1.1.5-2.1-.7-1.5-2.2-4.8-2.9-7.1-1.5-1.5.8-1.5.9.2 1 1.5 0 1.6.3.6 1.5-.6.8-.9 1.8-.6 2.3.3.6-.3 1.2-1.4 1.5-1.3.3-2.4-.3-3.5-2-1.5-2.3-1.8-2.3-3.4-.9-1.6 1.5-7.2 2.4-5.8.9 1.1-1-1.3-3.3-3.4-3.3-1.1 0-1.9.6-2 1.2 0 .7-.4.3-1-1-1.1-2.9.6-6.8 2.4-5.4 1.6 1.2 5.7 2.2 5.7 1.4 0-.8 6.3-5.2 7.4-5.2.4 0 .1.7-.8 1.5-2.2 2.2-.9 4.5 2.5 4.5 3.1 0 4-2.5 1.7-4.8-.9-.9-.6-1.2 1.4-1.2 4.1 0 5.8-1 5.8-3.6 0-2.1-.2-2.3-2.6-1.3-2 .7-3.9.6-7.3-.5-2.5-.8-6.4-1.3-8.6-1.1-2.2.2-6.7.6-9.9.9-3.3.3-6.3 1.1-6.7 1.7-.8 1.3-20.7 2.1-21.5.8-.2-.4-1.7-.5-3.3-.3-3 .5-5-.9-3.1-2.1.8-.5.7-1.1-.1-2.1-.9-1.1-.8-1.4.4-1.4 2 0 3.6-2.2 2.8-4-.7-1.7-4.1-2.6-4.1-1 0 .5-1.3 1-3 1-2.3 0-3 .4-3 2 0 1.1.5 2 1 2 1.8 0 1.1 2-.7 2.1-1 0-.3.5 1.5 1 3.2.9 4.5 2.9 1.9 2.9-.8 0-2.3 1.1-3.6 2.3-2.5 2.8-2 5.7 1 5 1.5-.4 1.8-.2 1.3 1.1-.3.9-.1 1.6.6 1.6.6 0 .8.5.5 1-.4.7 1 .9 3.8.8 4.2-.3 4.4-.4 3.4-2.5-.8-1.8-1.5-2.1-3.8-1.6-1.7.3-2.9.1-2.9-.5s1.8-.9 4.3-.8c3.3.1 4.1.5 3.9 1.9-.4 2.1 4.3 2.4 5.5.3.7-1.2 1.6-1.2 6 .4 3.3 1.2 5.3 1.4 5.5.8.2-.6 2.6-1.1 5.3-1.2 4.7-.1 5 0 5.3 2.7.4 3.1-.2 3.3-4 1.3-2.3-1.2-2.8-1.3-2.8-.1 0 2.4-6.2 2.9-13.4 1-1.8-.5-3.1-.4-3.5.4-.4.6-3.6 1.3-7 1.6-3.5.3-7.1 1-8.1 1.5-.9.5-2 .6-2.4.3-.3-.3-.6-.1-.6.5 0 1.7-1.7 1.5-3.9-.4-2.6-2.3-1.6-4.4 2.1-4.4 2.3 0 2.9-.4 2.6-1.8-.2-1.1-1.6-1.9-4.3-2.3-2.2-.3-3.3-.7-2.4-.8.9 0 2.2-.8 2.9-1.6 1.9-2.3-.4-4.4-4.4-4-1.8.2-3.9-.1-4.7-.7-1.1-.8-1.1-.9.2-.5 2.3.8 4.2-.8 3.5-2.9-.3-1.1-.7-2.4-.8-2.9-.5-3-7.1-5.4-9.4-3.4-1.1.9-1.4.8-1.4-.4 0-.9.9-1.9 2.1-2.2 2.2-.7 2.2-4.2 0-3.7-.9.2-1.2-.4-.8-1.7.6-2.3-1.1-3.2-4.5-2.4-1.2.3-1.9.2-1.5-.2.8-1 2.2-1.3 8-1.9 2.2-.2 4.4-1.2 5.2-2.3 1.2-1.5 1.4-1.6 2-.3.7 2 3.9 2.2 9 .7 2.3-.6 11-1.2 20.7-1.2 11.2-.1 17.1-.5 18-1.3.8-.7 3.7-1 6.6-.8 3.5.2 5.6-.2 6.3-1.1 1.6-1.8 4.3-1.7 3.6.2-.4.8-.2 1.7.4 2 1.4.9 4.9-.4 4.6-1.8-.3-1.6 2.8-2 4.4-.5.9.8 4.8 1.4 10.4 1.7 8.9.3 9.1.2 10.2-2.2 1.3-2.7.3-3.7-3.8-3.7-1 0-1.9-.5-1.9-1 0-.6-.7-1-1.5-1s-1.5.4-1.5.9c0 .6-1.7.8-3.7.5-6.6-.8-24.3-1.6-38.5-1.7-7.6-.1-13.8-.5-13.8-1s-1-.7-2.2-.5c-1.3.2-2.2.9-2.1 1.6.3 1-3.1 1.8-5.9 1.3-.5 0-.8.2-.8.7 0 .4-2 .8-4.5 1-3.9.2-4.5 0-4.5-1.7 0-1.1.5-2.3 1-2.6.8-.5 10.1-1.3 18.5-1.5.6 0 2.7.2 4.8.4 2 .2 3.7.1 3.7-.4 0-1.4 3.5-1.7 4.8-.3 1.7 1.8 2.4 1.7 5-.7 2.1-2 2.1-2 3.5 0 1 1.5 2.3 1.8 5.7 1.6 2.5-.2 4.8-1 5.5-2 .7-.9 2.2-1.6 3.3-1.6 1.1 0 2.8-1 3.6-2.2.9-1.2 1.6-1.7 1.6-1 0 1.6 5.1 1.1 5.8-.6.7-1.8-1.9-3.4-3.4-2.1-.9.7-1.9.6-3.2-.2-1.6-1-1.7-1.6-.8-3.5 1.3-2.8 3.4-3.8 5-2.5.7.6 2.1.8 3.3.5 1.3-.4 2.2 0 2.7 1.1.3.9 1.1 1.3 1.7.9 2.4-1.4 7.9-1.5 7.9-.1 0 .8 1 1.9 2.3 2.5 1.7.8 1.8 1.1.5 1.1-.9.1-2-.4-2.3-.9-.4-.6-1.8-.1-3.5 1.2-3.7 2.9-3.7 3.7-.1 3.6 3.5-.1 5.2.8 4.5 2.5-.5 1.5 2.7 5.7 4.4 5.7.6 0 1.2-.5 1.4-1.1.4-1.2 17.6-1.9 20-.7 1.1.5 1.8.3 2.2-.7.3-.8 1.1-1.5 1.7-1.5.9 0 .8.4 0 1.4-1 1.1-.9 1.4.3 1.2.9-.1 1.8-.5 2.2-.9.4-.3 1.5-.2 2.5.4 1.6.8 1.9.6 1.9-1.6 0-3.3 2.7-3.3 4 0 .8 2.1 1.4 2.4 3.6 1.9 1.8-.5 2.5-.3 2 .4-1.1 1.8 2.2 4.1 5.4 3.7 1.6-.2 3 0 3 .5 0 1.1-.5 1.2-5.5 1.2-5.2 0-5.7-.1-5-1.2.3-.6.1-1.1-.4-1.1-.6-.1-1.7-.2-2.3-.4-.7-.1-2.4.5-3.7 1.3-1.6 1-4.7 1.4-9 1.3-19.2-.6-22.1-.5-23.1.5-1.4 1.4 1.4 6.4 3.6 6.4 1.7 0 1.9-2 .2-2.1-.7 0 .1-.5 1.7-1 2.5-.7 3.2-.6 4.3 1 1.1 1.6 1.8 1.8 3.9 1 2.1-.8 3-.6 4.9 1.2 2.1 2 2.7 2.1 4.9.9 1.3-.7 2.2-1.7 1.8-2.3-.4-.6.6-.7 2.6-.3 1.7.3 4.5.9 6.1 1.2 2.4.5 2.9 1 2.5 2.5-.4 1.2-.1 2.1 1 2.5 1.4.6 1.4.8-.1 1.9-2.1 1.5-.9 2.3 4.2 2.9 2.2.3 5 .8 6.4 1.1 1.4.4 4.1.6 6.1.6 1.9 0 4.9.3 6.6.8 1.7.5 3.5.5 3.9.1.5-.5 2.5-.5 4.4-.1 3.8.9 2.4 2.1-2 1.8-2-.2-2.4.2-2.2 2 .2 1.7-.1 2-1.7 1.6-1.2-.3-1.8-.9-1.5-1.4.3-.5.1-.9-.4-.9-.6 0-1.3.7-1.6 1.6-.5 1.4-1.6 1.6-6.4 1.1-3.1-.3-7-.9-8.6-1.2-1.7-.4-3.7 0-5.1.9-2 1.3-2.5 1.3-3.5.1-.7-.9-3-1.5-5.3-1.5-4.9 0-3.8 2.1 1.2 2.2 1.7.1 3.6.7 4.3 1.5.8 1 1.3 1.1 1.8.2.6-.8 2-.7 5.6.4 2.7.9 6.2 1.5 7.7 1.5 3.2-.1 4.2.6 3.2 2.2-.6.9-1 .9-1.6-.1-1.2-2-6.5 1.4-6.2 3.9.2 1.6-.5 1.9-4.7 1.8-2.8-.1-5-.4-5-.8 0-1.1-8.9-.3-10.1.9-.7.7-.7 1.3-.1 1.7.8.5 14.5 1.6 21.2 1.7 6.3.1 26.4 2 27.3 2.6.6.4 3.6.8 6.7.9 3 .1 8.6.5 12.3.8 7 .7 8.3-.3 3.3-2.5-1.7-.8-1.4-.8 1.4-.4 1.8.3 3.6.9 4 1.3.5.8 2.4 1.1 9 1.3 1.9 0 4 .5 4.7 1 .6.6 2.4 1.2 4 1.4 1.5.2 2.8.4 2.8.5 0 .1.8.3 1.7.5 5 .9 1.4-4.6-4.1-6.4-1.9-.6-5.1-1.1-7.1-1.1s-5.1-.7-6.9-1.6c-2-1-4.2-1.3-5.8-.9-1.7.4-2.9.1-3.4-.7-1.4-2.1-1.1-2.5 1.4-2.3 1.2.1 2.2.3 2.2.5 0 .1 1.6.4 3.5.7 1.9.2 3.8.9 4.1 1.5.4.6 1.5.1 2.7-1.2 1.1-1.2 2.2-1.8 2.5-1.3.4.7 6.4.9 8.6.4.2-.1-.2-.8-.9-1.6s-1.7-1.2-2.3-.8c-.6.4-.8 0-.4-1 .4-1.2.1-1.7-.9-1.7-1.1 0-1.4.5-1 1.6.5 1.4.4 1.5-.9.4-1-.8-1.5-.9-1.5-.2 0 .6-.7.9-1.5.6-1.6-.7-1.1-4.3.7-5.5.7-.4.6-.9 0-1.3-.6-.3-1.3 0-1.6.6-.3 1-.9.8-1.9-.5-.9-1-2.8-1.7-4.9-1.7-2 0-4.1-.7-4.8-1.5-1-1.2-.9-1.5.4-1.5s1.5-.4.6-1.9c-1.2-2.4-.1-3.2 3.1-2.5 1.3.3 4.7.7 7.5.9 2.9.2 6.1.8 7.2 1.4 2.3 1.2 3.9-.1 1.9-1.7-.6-.5-3.1-1.5-5.4-2.1-2.4-.7-4.3-1.5-4.3-2 0-.4-1.7-1.3-3.7-1.9-2.1-.6-5.4-1.5-7.3-2.1l-3.5-1 3.8.2c2.3.2 3.7-.1 3.7-.9 0-1.6-2.5-3.6-3.4-2.7-.4.4-.4-.1 0-1 .5-1.5.9-1.6 2.3-.5.9.7 2.6 1.8 3.7 2.5 1.9 1 2.3.9 2.8-1 .6-1.9.8-2 1.9-.7 1.3 1.6 9.9 2.1 11.3.8.9-1-2.4-4.8-4.1-4.8-.7 0-1.6-.7-1.9-1.6-.5-1.2 0-1.5 1.9-1.2 1.3.2 2.4 0 2.5-.5.1-2.3-.2-2.7-2-2.7-1.1 0-2-.4-2-.9s-1.5-1.4-3.2-2.2c-1.8-.7-3.5-1.5-3.8-1.9-1-1.1-6.1-3-8.2-3-1.1 0-5.9-1-10.7-2.1-4.7-1.2-9.5-2.3-10.6-2.5-1.1-.2-3.5-.7-5.2-1-1.8-.4-3.3-1-3.3-1.4 0-.5.8-.6 1.9-.3 2.6.7 3.6-1.4 1.1-2.2-1.1-.3-2-1.1-2-1.6 0-1 8.2-.1 9 1.1.3.3 1.8.6 3.3.5 1.6-.1 3.5.4 4.2 1.2 1.9 1.9 3.6 1.6 2.8-.5-.6-1.5-.4-1.5 1.5.2 1.7 1.5 2.7 1.7 4.4.9 1.9-.8 2.8-.5 5.2 1.9 1.5 1.6 3.3 2.7 3.8 2.6 1.2-.4 1.1-2.3-.2-2.3s-1.4-1.9-.2-2.3c.5-.1 1.6.3 2.3 1 .8.7 2.3 1.4 3.4 1.6 1.1.1 3.8.5 6 .9 3.1.4 3.7.3 2.9-.6-.6-.7-1.8-1.4-2.5-1.5-.8-.2-2.7-.8-4.4-1.5-1.6-.7-3.7-1-4.7-.7-1.1.2-2.2-.3-2.8-1.5-.6-1-1.9-1.9-3-1.9-1 0-2.7-1-3.7-2.3-1-1.3-2.4-2.2-3-2-.7.3-2.3-.3-3.5-1.1l-2.2-1.6h2.7c3.2 0 3.4-1.2.6-3.9-2.4-2.2-1.1-2.3 3.9-.2 3.6 1.5 5.1.9 3.3-1.3-1.1-1.3-.7-1.4 2.1-1 1.8.3 5.3.7 7.8 1 2.5.2 5.1.5 5.8.6.6.1 1.2.4 1.2.7 0 .3 2 .6 4.5.6s4.4-.3 4.4-.7c-.3-2.9-1.3-4.6-2.4-4.2-.7.3-1.6.1-2-.5-.6-1 .8-1.6 2.9-1.2.5.1.4-.5-.3-1.3-.7-.9-1.7-1.4-2.1-1.1-.5.3-3.2-.4-6-1.5-6.5-2.6-7.9-2.5-9 .2l-.9 2.3v-2.2c-.1-1.2-.5-2.5-1.1-2.8-.5-.3-1-1-1-1.4 0-.9 3.7-2.4 5.5-2.2.6 0 .2-.5-.9-1.2-1-.6-2.8-2.1-4-3.3-1.2-1.1-2.7-1.9-3.4-1.6-.7.2-1.2-.1-1.2-.6 0-1-3-1.9-8.3-2.7-1.2-.2-3.5-.7-5.2-1.2-4.1-1.2-7.8-.5-7.1 1.3.4 1.2 0 1.1-2.6-.2-2.1-1.1-2.7-1.8-1.8-2.4.8-.5.2-1.2-1.9-2.1-1.7-.8-3.1-1.7-3.1-2.2 0-1.6 2.8-1.7 8.9-.3 6.1 1.4 9.1 1.3 9.1-.4 0-1.2-1.1-1.8-4.1-2.4-1.3-.2-4-1.1-5.9-2-2.6-1.1-3-1.6-1.5-1.7 1.1-.1 2.5 0 3 .1.6.1 2.5.3 4.2.5 2.7.1 3.1-.1 2.2-1.2-.9-1-.8-1.3.3-1.3.8 0 1.8.3 2.2.7 1.2 1.2 10.4 1 10-.2-.3-.6-1.6-1.2-2.9-1.3-1.4-.1-3.5-.2-4.8-.3-1.5-.1-2.8-1.2-3.6-3-.7-1.6-2.3-3.2-3.7-3.5-3.2-.8-9.3-6.6-7.7-7.1 2.4-.9 1.3-3.3-2.4-5.3l-3.8-2.1 4 .7c7.8 1.3 8.4 1.3 7.8-.2-.3-.8-1.5-1.4-2.7-1.4-1.1 0-3.6-.9-5.4-2-1.8-1.1-4.2-2-5.5-2-2.8-.1-7.3-2.5-6-3.3.5-.3 3 0 5.6.8 4 1.2 4.7 1.2 5.8-.1 1-1.2.8-1.7-.7-2.8-1-.8-2.2-1.2-2.6-1-.5.3-.8.1-.8-.4s-.6-.9-1.2-1c-3.5-.3-10.9-2-11.5-2.6-1.3-1.3.9-2.5 2.8-1.6 1.1.6 2.4.8 2.9.5 1.2-.7 1.3-3.5.2-3.5-.5 0-1.7-.7-2.8-1.5-1.9-1.4-1.9-1.4.3-1.5 1.2 0 2.8.7 3.7 1.5 1.6 1.7 3.6 2 3.6.6 0-.5-.7-1.4-1.5-2.1-1.1-.9-1.2-1.6-.5-2.5.7-.9.6-1.6-.5-2.5-1.6-1.3-1-3.4.7-2.4.6.4 4.1.8 7.7 1 8.1.4 9.1.6 9.1 1.3 0 .7 7.2.5 10.6-.3 2.8-.7 2.3-2.6-.7-2.6-1 0-1.9-.4-1.9-.8 0-.5-.6-.9-1.2-.9-.7 0-6.5-2.3-12.8-5.2-20.6-9.3-25.2-11.2-25.7-10.7-.2.2-2.3-.2-4.6-.8-2.3-.7-6-1.2-8.2-1.1-2.2.1-4.9-.2-5.9-.8-2.6-1.3-9.6-1.7-12.3-.6-1.5.5-2.7.4-3.5-.4-.7-.7-2.2-1.4-3.3-1.5-3.6-.3-6-.8-7.1-1.4-1.3-.9-5.4.1-5.4 1.2 0 .5.8 1 1.8 1.2 1 .2 1.3.6.6 1-.6.4-2.6-.3-4.5-1.5-4.1-2.8-8.3-3.2-11.2-1.2-2.8 2-3.4 1.9-4-.5-.4-1.7-1.2-1.9-7.1-1.6-3.8.2-6.6-.1-6.6-.7 0-.5-.7-.6-1.6-.3-.8.3-2.3.2-3.3-.4-2.3-1.2-6.1-.2-6.1 1.6 0 .8-.6 1.4-1.4 1.4-1.8 0-3.8-2.5-2.8-3.5.4-.4-.4-.5-1.8 0-3.3.9-10 1.2-10.6.4-.2-.3-1.6-.4-3-.1-2 .4-2.5.2-1.9-.8.6-1-.2-1.2-3.9-.7-2.9.4-4.5.3-4.1-.3.8-1.4-4.9-4-7.3-3.3-1.2.3-2.2 1.2-2.2 2.1 0 1.3-.2 1.3-1.8-.1-1.1-1-3.5-1.6-6.2-1.6-2.5 0-7.5-.3-11.3-.6-4.2-.5-7.2-.3-8 .3-1.2 1-9.9.8-16.5-.3-1.8-.3-4.8 0-6.7.6-2.4.9-4 1-5.7.2-1.5-.7-3.2-.7-4.8-.1zM76 94c0 .5-.2 1-.4 1-.3 0-.8-.5-1.1-1-.3-.6-.1-1 .4-1 .6 0 1.1.4 1.1 1zm51.5 1.6c2.4 2.2 2.6 2.9 1.6 5-2.1 4.7-6.1 1.8-6.1-4.5 0-3.8.9-3.9 4.5-.5zM174 95c0 .5-.8 1-1.7 1-1.5 0-1.6-.2-.3-1 1.9-1.2 2-1.2 2 0zm13.8-.1c.8.4 1.2 1.2 1 1.7-.1.5 1 1.1 2.6 1.4 1.6.3 3.1 1.1 3.4 1.8.3 1-.5.9-3.4-.3-4.2-1.7-6.4-3.3-6.4-4.6 0-1.1 1.1-1.1 2.8 0zm6.6.7c.5 1.2.2 1.5-1 1-.8-.3-1.8-.6-2-.6-.3 0-.2-.5.1-1 .9-1.5 2.2-1.2 2.9.6zm26.6-.1c0 .8.5 1.5 1 1.5.6 0 1 .4 1 1 0 .5-1.5 1-3.2 1-3.1-.1-3.2-.2-1.4-1.5 1-.7 1.5-1.8 1.1-2.4-.3-.6-.1-1.1.4-1.1.6 0 1.1.7 1.1 1.5zm-4.2.9c-1 .7-1.8 2.5-1.8 4 0 2.5-.2 2.6-2.2 1.4-1.3-.7-3-1.1-4-1-2.5.4-3-1.3-.8-3.3 1.8-1.6 2-1.6 2-.2 0 2.7 1.8 2.8 4.4.2 1.4-1.4 2.9-2.5 3.3-2.5.4 0 0 .7-.9 1.4zm10.2.1c.5-.3 1.5.3 2.2 1.3 2 2.8 8.3 1.7 7.2-1.3-.6-1.4 1.2-1.5 3.4-.1 1 .6 1 1.1.1 2.2s-.7 1.4 1 1.4c3 0 3.6-.3 3.3-1.8-.2-.6.6-1.2 1.8-1.2 1.2 0 1.8.4 1.5 1-.3.5.3 1 1.4 1 1.2 0 2.1.4 2.1 1 0 .5 1.2 1 2.6 1 1.4 0 2.3-.4 1.9-.9-1.3-2.3 1.8-2 4.6.3 2.4 2 4.2 2.6 7.9 2.6 2.7 0 5.2-.5 5.5-1 1-1.6 3.8-1.2 3.2.4-.5 1.2.7 1.5 6 1.5 7.4 0 10.2 1.4 6 3-2.2.9-2.7 1.7-2.7 4.6 0 2 .4 3.4.9 3.1.5-.4 1.2 0 1.5.6.3.9.8.8 1.6-.5.6-1 2.3-1.7 3.8-1.6 2.4 0 2.5.1.7.9-1.6.7-1.7.9-.3.9 2.5.1 6.8 2.3 6.8 3.4 0 .5-.7.4-1.5-.3-.9-.7-2.8-1-4.7-.7-1.8.4-4.9.3-6.8-.1-2.8-.7-3.4-1.2-3.2-3 .2-1.6-.3-2.3-2.3-2.8-3.7-.9-4.2.2-1.4 3.2l2.4 2.6-4.5-.7c-2.5-.4-7.5-.8-11.2-.8-5 0-6.8-.4-6.8-1.4 0-.7.7-1.3 1.5-1.3s1.5-.5 1.5-1.1c0-.6 1.2-.1 2.7 1 2.4 2 2.8 2 4.4.6 1.1-1.1 1.9-1.3 2.4-.6.3.6 1.3 1.1 2.2 1.1 1.4 0 1.4-.3-.1-2.5-2-3-2-3.5-.1-3.5.8 0 1.5.4 1.5 1 0 .5 1.5.9 3.3.7 2.4-.2 3.2-.7 3.2-2.2 0-1.6-.8-2.1-3.9-2.3-2.2-.2-5 .2-6.2.9-1.8.9-3 .9-5.5-.2-2.5-1-3.4-1-3.7-.1-.2.7-1.9 1.2-3.7 1.2-2.5 0-3.5-.5-4-2-.9-2.8-5.3-2.7-6.4.2-.6 1.8-.9 1.9-1.4.5-.4-1-1.1-1.7-1.7-1.7-1.4 0-1.3 3.7.2 4.6.8.5.5 1.1-.7 2-1 .8-1.5 1.7-1 2.1.4.5 1 .2 1.2-.5.6-1.7 3.8-1.5 5.3.3 1.1 1.4 1.4 1.3 2.5-.1 1-1.4 1.4-1.5 3.3-.3 3.2 2 2.4 3.8-1.3 2.9-2.3-.6-9.5-.6-9.5 0 0 1.7 2.4 2.8 4.6 2 1.4-.6 3.5-.5 5.4.1 3.3 1.2 4.1 2.8 1.3 2.5-1 0-1.7.5-1.6 1.1.4 1.6-1.3 1.7-2.2.2-.4-.6-1.4-.8-2.2-.4-.9.3-2.4-.2-3.3-1-1.6-1.5-1.9-1.4-3.4 0-1.5 1.5-1.6 1.4-1.6-1.4 0-4.1-1.9-4.9-2.6-1.2-.7 3.4-2 3.8-7.1 1.9-3.5-1.3-4.5-3-1.5-2.7 5.1.5 5.7-1.2 1.2-3.4-1.7-.9-3.2-1.1-3.6-.6-.3.5-.9.7-1.5.4-.5-.3-3.9-.8-7.6-1.1-3.7-.3-6.9-.6-7-.8-.2-.2.9-1.1 2.4-2.1 1.8-1.2 2.8-1.4 3.1-.7.2.7 1 1.2 1.8 1.2.9 0 1.3-.4 1-.9-.3-.5.1-1.2 1-1.5 2.3-.9 2.7-.8 2.1.8-.3.8 0 1.9.7 2.6 1 .8 1.5.7 2-.6 1.1-2.9-.4-6-3.6-7.2-2.6-1-2.9-1.4-1.8-2.7.7-.8 1.7-1.2 2.2-.9.6.4.8-.3.4-1.7-.3-1.3-.3-1.8 0-1.1.3.6 1 1 1.4.7zm8-.5c0 .5-.4 1-1 1-.5 0-1-.5-1-1 0-.6.5-1 1-1 .6 0 1 .4 1 1zm-129.6 3.5c-.7 1.7-2 2-2.8.6-.7-1 .3-2.1 2-2.1.8 0 1.1.6.8 1.5zm5.1-.5c.3.5-.1 1-1 1s-1.3-.5-1-1c.3-.6.8-1 1-1 .2 0 .7.4 1 1zm176 1c.3.5-.1 1-1 1s-1.3-.5-1-1c.3-.6.8-1 1-1 .2 0 .7.4 1 1zm-208.8.6c-.3.3-1.2.4-1.9.1-.8-.3-.5-.6.6-.6 1.1-.1 1.7.2 1.3.5zm14.8 4.4c.3.5-.1 1-1 1s-1.3-.5-1-1c.3-.6.8-1 1-1 .2 0 .7.4 1 1zm120.5 0c0 .5-.2 1-.4 1-.3 0-.8-.5-1.1-1-.3-.6-.1-1 .4-1 .6 0 1.1.4 1.1 1zm-136.3 2.2c-.3.8-.6.5-.6-.6-.1-1.1.2-1.7.5-1.3.3.3.4 1.2.1 1.9zm3.8-1.2c.3.5.1 1-.4 1-.6 0-1.1-.5-1.1-1 0-.6.2-1 .4-1 .3 0 .8.4 1.1 1zm51 0c.3.5.1 1-.4 1-.6 0-1.1-.5-1.1-1 0-.6.2-1 .4-1 .3 0 .8.4 1.1 1zm67.3 2.4c-.2 1.6-.9 2-2.8 1.7-2.9-.4-4.6-2.4-2.5-2.9.8-.2 1.5-.7 1.5-1.2 0-.4.9-.6 2.1-.3 1.4.4 1.9 1.2 1.7 2.7zm-18.3-1.4c.3.5 1.7 1 3 1s2.6.4 3 .9c.8 1.5-1.5 2.5-2.8 1.2-1.3-1.3-2.8-1.5-2.6-.4.4 2.2-.3 2.1-2.6-.3-1.4-1.5-2.5-2.9-2.5-3 0-.9 3.9-.3 4.5.6zm122.4 2.5c.3 1.7.2 1.8-1.4.2-.9-.9-2.1-1.7-2.6-1.7s-.9-.4-.9-1c0-1.7 4.5.6 4.9 2.5zm-189.9-.4c0 .5-.7.9-1.5.9s-1.5-.7-1.5-1.5c0-.9.6-1.2 1.5-.9.8.4 1.5 1 1.5 1.5zm57-1.1c0 .5-.2 1-.4 1-.3 0-.8-.5-1.1-1-.3-.6-.1-1 .4-1 .6 0 1.1.4 1.1 1zm40.4 1.8c-2.2.5-3.1-.7-1.4-1.8.9-.6 1.7-.5 2.2.3.4.7.1 1.3-.8 1.5zm-108 1.4c.9 1.7 1.3 2.9 1 2.5-.4-.4-1.3-.2-2 .3-.6.6-2.1 1.2-3.1 1.5-1.7.3-1.9-.1-1.5-2.3.5-2.6 2.1-5.1 3.4-5.2.3 0 1.4 1.4 2.2 3.2zm32-.9c1.7 1.6 1.6 1.7-1.1 1.9-3.5.2-6.4-.1-8.1-.7-1-.4-1-.8-.1-1.7 1.7-1.9 7.3-1.6 9.3.5zm-16.8 1.4c-1 1-1.9-.5-1-1.8.6-1.1.8-1.1 1.2 0 .2.7.1 1.5-.2 1.8zm-9.5-.2c-.1 1.5-2.4 1.2-2.9-.3-.3-.9.2-1.3 1.2-1 1 .1 1.7.7 1.7 1.3zm33.4-.5c.3.5-.1 1-.9 1s-1.8-.5-2.1-1c-.3-.6.1-1 .9-1s1.8.4 2.1 1zm191.4 2.6c1.4 1.2-1.9.1-3.5-1.2-1.8-1.4-1.8-1.4.6-.3 1.4.6 2.7 1.3 2.9 1.5zM92.5 113c-.3.5-1.4 1-2.3.9-1.4 0-1.3-.2.3-.9 2.7-1.1 2.7-1.1 2 0zm-23.8 1.4c-.3.8.2 1.6 1.4 1.9 1 .3 1.9 1 1.9 1.5 0 1.6-5.3 2.1-7.2.8-1.7-1.2-1.7-1.4.3-3.4 2.2-2.5 4.4-2.9 3.6-.8zm16.2 1.6c-.7.5-2.1.4-3.1-.1-1.6-.9-2.1-.6-2 1.1 0 .3-1 .7-2.4.8-1.3.1-2.4-.3-2.4-.9 0-.5.4-.8.8-.5.5.3 2.1-.4 3.7-1.4 2.2-1.4 3.3-1.6 4.8-.8s1.7 1.2.6 1.8zm93.9.1c-.3.8-.7.3-1.1-1-.4-1.7-.3-2.1.5-1.3.5.5.8 1.6.6 2.3zm21.7-1.1c.5.8 1.1.7 2.1-.1 1.1-.9 1.7-.9 2.5-.1.5.7.6 1 .3.7-.4-.3-1.2-.1-1.9.5-1.3 1-5.5.2-5.5-1.1 0-1.2 1.7-1.1 2.5.1zm26 3.6c-1.6 1.7-1.6 1.8.4 3.3 2.4 1.9 1.4 4.5-1.8 4.7-1.6.1-1.8-.2-1.2-1.5 1.4-2.5 1.4-3.3-.1-4.2-1-.7-1-.9 0-.9.6 0 1.2-.7 1.2-1.5 0-.9-.6-1.2-1.7-.8-1.6.6-1.6.4.1-1.6 1.7-1.9 2.1-2 3.4-.7 1.3 1.3 1.3 1.7-.3 3.2zm82.9.5c-.6 1-3.8 1.2-4.7.3-.3-.4-.2-1.5.4-2.6 1-1.9 1.2-1.9 3-.2 1 .9 1.6 2.1 1.3 2.5zm-41.4-1.2c.3.1-.6.7-2 1.4-2.4 1.2-3.9.6-4-1.5 0-.5 3.7-.5 6 .1zm9.6 1.1c1.7 0 2.7.8 3.4 2.6 1.3 3.3 1.3 3.4-.4 3.4-.8 0-1.6-.7-2-1.5-.3-.8-1-1.5-1.5-1.5s-2.2-.5-3.8-1.1c-2.7-1-2.7-1.1-.8-2.5 1.2-.9 2.1-1.1 2.3-.4.2.5 1.5 1 2.8 1zm37.9-1c.3.5.1 1-.4 1-.6 0-1.1-.5-1.1-1 0-.6.2-1 .4-1 .3 0 .8.4 1.1 1zm-190.5.9c0 .6-.4 1.3-1 1.6-.5.3-1-.1-1-.9 0-.9.5-1.6 1-1.6.6 0 1 .4 1 .9zm162.3 2.1c.9 0 1.7.4 1.7 1 0 .5-1.3.8-3 .7-1.6-.1-3-.5-3-.9 0-.3-.3-1.5-.7-2.5-.6-1.7-.6-1.7 1.4-.1 1.1 1 2.7 1.8 3.6 1.8zm-156.8-1c-.3.5-1 1-1.6 1-.5 0-.9-.5-.9-1 0-.6.7-1 1.6-1 .8 0 1.2.4.9 1zm-40.2 1.3c.3.8.2 1.9-.3 2.6-.5 1-.9.8-1.4-.4-.3-.9-.6-2.1-.6-2.6 0-1.4 1.7-1.1 2.3.4zm-7.3 3.5c-.7.3-.7.9.1 2 .6 1 0 .4-1.5-1.1-3-3.2-2.6-5.5.5-2.9 1.1.9 1.5 1.8.9 2zm93.5-2.8c.3.5-.1 1-.9 1-.9 0-1.6-.5-1.6-1 0-.6.4-1 .9-1 .6 0 1.3.4 1.6 1zm120.1.1c.3.6.1 1.6-.6 2.2-1 .9-1.4.9-1.7-.1-.3-.6-1.3-1.2-2.4-1.2-1 0-1.9-.5-1.9-1 0-1.4 5.7-1.3 6.6.1zm-110.9.5c-.3.3-1.2.4-1.9.1-.8-.3-.5-.6.6-.6 1.1-.1 1.7.2 1.3.5zm153.1 1.1c.5 1.8-1 1.6-3.4-.2-1.8-1.5-1.8-1.5.5-1.3 1.4.2 2.6.9 2.9 1.5zm-263 .2c1.1.7 1 1-.3 1.5-1.9.7-3.5 0-3.5-1.5 0-1.1 2-1.2 3.8 0zm23.7.1c-.3.5-1.1 1-1.6 1-.6 0-.7-.5-.4-1 .3-.6 1.1-1 1.6-1 .6 0 .7.4.4 1zm38.4-.4c2.9.6 3 .8 1.4 1.9-2.9 2-7.8 2.3-7.9.5-.1-3.2.8-3.5 6.5-2.4zm109.8 1c4-.3 4.6-.2 1.8.3-2.2.3-3.9 1-3.8 1.6.1.5-.8.9-2 .7-3.2-.4-6.7-2.4-6.1-3.4.3-.4 1.4-.4 2.4.2 1 .5 4.5.8 7.7.6zm-182.3 2c.3.8.2 1.2-.4.9-.6-.3-1-1-1-1.6 0-1.4.7-1.1 1.4.7zm196.6 2.7c0 .5.7 1.5 1.5 2.4 3.4 3.4 1.1 4.2-9 3.2-3-.3-4 0-4 1.1 0 .9-.8 1.4-2 1.2-3-.6-3.7-3.4-.9-3.8.8-.1 2.3-.6 3.2-1 .9-.4 2.9-.7 4.5-.7 1.5 0 2.7-.5 2.6-1.1-.1-.6-.1-2.1 0-3.3.1-2.2.2-2.2 2.1-.6 1.1 1 2 2.1 2 2.6zm23-.9l3.2 1.3-2.6.5c-1.9.4-2.9 0-3.7-1.3-1.2-2.3-1-2.3 3.1-.5zm10.7 2.1c-.6 1.8-4 1-4.8-1.1-.7-2-.6-2.1 2.2-1.1 1.6.6 2.8 1.6 2.6 2.2zm-155-.6c.1 1.1-.9 2.3-2.5 3-2.3 1-2.5 1-1-.2 1-.8 1.5-1.7 1.1-2.1-.6-.5.7-1.9 2.2-2.6.1 0 .1.8.2 1.9zm-66.8 1.3c0 1.3-.3 1.7-.6 1-.2-.6-1-.9-1.6-.5-1.4.9-3.7 1.3-3.7.7 0-1.2 2.7-3.3 4.3-3.4 1.1 0 1.7.7 1.6 2.2zm6.7-.7c2.1 1.1 2.4 1.5 1.1 1.5-1 0-2.5-.7-3.3-1.5-1.9-1.9-1.4-1.9 2.2 0zm11.4-1.1c0 .3-.4.8-1 1.1-.5.3-1 .1-1-.4 0-.6.5-1.1 1-1.1.6 0 1 .2 1 .4zm188.5 2.6c-.3.5-1.1 1-1.6 1-.6 0-.7-.5-.4-1 .3-.6 1.1-1 1.6-1 .6 0 .7.4.4 1zM116 133c0 .5-.7.7-1.5.4-.8-.4-1.5-.8-1.5-1 0-.2.7-.4 1.5-.4s1.5.4 1.5 1zm19 0c0 .5-.5 1-1.1 1-.5 0-.7-.5-.4-1 .3-.6.8-1 1.1-1 .2 0 .4.4.4 1zm107 .6c0 .1-.3.9-.6 1.8-.8 2.2-1.9 2-2.1-.2-.1-1 .5-1.9 1.3-1.9s1.4.1 1.4.3zm-133 .8c0 1.1-1.9 1.5-2.5.6-.3-.5.1-1 .9-1 .9 0 1.6.2 1.6.4zm161 .7c0 .5-.9.9-2 .9s-2-.4-2-.8.9-.8 2-.9c1.1-.1 2 .2 2 .8zm-181 4.7c2.4.7 2.8 1 1.3 1.1-1.2.1-2.3.7-2.6 1.3-.3 1-.7 1-1.9 0-.9-.7-2.4-.9-3.4-.6-1.5.6-1.7.4-.7-.6.9-1 .8-1.9-.5-3.9l-1.7-2.6 3 2.2c1.7 1.2 4.6 2.6 6.5 3.1zm185.9-2.2c-2.8 3-3.9 3-3.9.1 0-1.8.6-2.2 3.1-2.3l3-.2-2.2 2.4zM299 136c0 .5-.9 1-2 1s-2-.5-2-1c0-.6.9-1 2-1s2 .4 2 1zm-254 .4c0 .3-.4.8-1 1.1-.5.3-1 .1-1-.4 0-.6.5-1.1 1-1.1.6 0 1 .2 1 .4zm20.5 1.6c.3.5-.1 1-1 1s-1.3-.5-1-1c.3-.6.8-1 1-1 .2 0 .7.4 1 1zm33.5 0c0 .5-.7 1-1.6 1-.8 0-1.2-.5-.9-1 .3-.6 1-1 1.6-1 .5 0 .9.4.9 1zm-24.5 3c-.3.5-.1 1 .4 1 .6 0 1.1.7 1.1 1.6 0 1.9-2.5 1.3-2.6-.7 0-1.6.5-2.9 1.2-2.9.3 0 .2.4-.1 1zm4.5 1.1c0 .5-.4.9-1 .9-.5 0-1-.7-1-1.6 0-.8.5-1.2 1-.9.6.3 1 1 1 1.6zm-10.5.9c2.5 2.8.9 3.9-4.4 3.1-5.1-.7-6.2-2.3-2.9-3.9 3.4-1.6 5.3-1.4 7.3.8zm-19.1 4.9c-.6.6-2.4-1.9-2.4-3.4.1-.6.7-.1 1.5.9.8 1.1 1.2 2.2.9 2.5zm299.1-2.9c1.3.6 1.5.9.5.9-.8 0-2.2-.4-3-.9-1.8-1.2-.2-1.2 2.5 0zm-262.2 2.7c1-.4 1.4-.2 1.1.6-.7 1.8-4.4 1.9-4.4.1 0-.8-.5-1.4-1.1-1.4-.5 0-.7-.5-.4-1.1.5-.6 1.2-.4 2 .7.7 1 1.9 1.5 2.8 1.1zm-31.8 2.4c-.7 1.1-3.5 1.2-3.5.1 0-.4.9-.8 2-.9 1.1-.1 1.8.2 1.5.8zm-7.5.3c0 .3-.4.8-1 1.1-.5.3-1 .1-1-.4 0-.6.5-1.1 1-1.1.6 0 1 .2 1 .4zm196.8 3.5c2.3.2.8 2.4-2.1 3.2-2.1.6-2.9.3-3.7-1.1-1.2-2.2-.6-2.8 2.3-2.5 1.2.1 2.8.3 3.5.4zM61 159.3c0 1.7-3.9 4.9-5 4.2-.6-.4-1-1.3-1-2.1s-.6-1.4-1.2-1.4c-.7-.1-.2-.9 1-2 1.8-1.5 2.8-1.7 4.3-1 1 .6 1.9 1.6 1.9 2.3zm208.4-2.7c2.1.8.2 3.4-2.5 3.4-2.1 0-2.6-2.6-.6-3.3.6-.3 1.3-.6 1.4-.6.1-.1.9.2 1.7.5zm-149.9 2.6c.4.3-.7.9-2.4 1.3-2.2.5-3.5.2-4.7-.9-1.4-1.4-1.1-1.6 2.5-1.3 2.2.1 4.3.5 4.6.9zm8.8-.5c-.7.2-2.1.2-3 0-1-.3-.4-.5 1.2-.5 1.7 0 2.4.2 1.8.5zm151.7.3c0 .5-.5 1-1.1 1-.5 0-.7-.5-.4-1 .3-.6.8-1 1.1-1 .2 0 .4.4.4 1zm-239.2 3.5c-.3.3-.9-.2-1.2-1.2-.6-1.4-.5-1.5.5-.6.7.7 1 1.5.7 1.8zm60.7-.6c-.6.6-5.5 1.9-10.9 3-5.4 1.2-10.4 2.5-11 3-.7.6-2 .3-3.6-.9l-2.5-1.8 3-.7c1.7-.3 3.9-.8 5-1.1 1.1-.3 4.7-.8 8-1.1 3.3-.3 6.2-.7 6.4-.9 1-.9 6.4-.3 5.6.5zm74.5 1.9c0 .5-1.4.9-3.1 1-1.8 0-3.7.6-4.2 1.1-.6.6-2 1.1-3.1 1.1-2.5 0-1.3-1.2 2.7-2.7 3.8-1.4 7.7-1.6 7.7-.5zm13.4-.2c1.7.7 2.2 4.4.6 4.4h-1.7c-.4 0-.8-1.1-1-2.5-.4-2.7-.3-2.8 2.1-1.9zm16.6.4c0 .5-.4 1-1 1-.5 0-1-.5-1-1 0-.6.5-1 1-1 .6 0 1 .4 1 1zm16 .6c0 .9-.5 1.4-1.2 1.2-1.8-.6-2.1-2.8-.4-2.8.9 0 1.6.7 1.6 1.6zm28.4-.5c-.7 1.2-18.4 1-18.4-.1 0-.8 3.2-1 9.4-.8 5.2.1 9.3.5 9 .9zm16.5 1.1l2.3 1.6-2.1 1.1c-1.3.7-2.1.8-2.1.2 0-.5-.8-.8-1.7-.7-2.8.5-6.3-1.2-5.7-2.7.7-1.9 6.3-1.6 9.3.5zM46 164.4c0 .3-.4.8-1 1.1-.5.3-1 .1-1-.4 0-.6.5-1.1 1-1.1.6 0 1 .2 1 .4zm6 1.6c0 .5-.7.7-1.5.4-.8-.4-1.5-.8-1.5-1 0-.2.7-.4 1.5-.4s1.5.4 1.5 1zm18.4 1c.6.6.3 1.2-.8 1.6-1 .4-2.2.2-2.9-.5-1.6-1.6-3-1.4-2.3.4.3.8 0 1.5-.7 1.5-1.5 0-3.8-3.5-2.9-4.5.9-.9 8.4.3 9.6 1.5zm72.3-.4c.4 1.1-.1 2.2-1.3 3.1-1.5 1.1-2 1.1-2.3.1-.2-.7-1.1-1.9-2-2.6-1.4-1.2-1.4-1.3.1-.8 1 .3 2 .1 2.3-.4.9-1.5 2.5-1.2 3.2.6zm140.8.4c.3.5-.1 1-.9 1-.9 0-1.6-.5-1.6-1 0-.6.4-1 .9-1 .6 0 1.3.4 1.6 1zm-164.1 3.2c-.3.5-1.2.2-2-.6-2-2.1-1.7-2.8.5-1.4 1.1.7 1.7 1.6 1.5 2zm9.9-1.8c.7-.3.1.3-1.3 1.4-1.7 1.4-2.9 1.8-4.1 1.2-.9-.5-1.9-.6-2.3-.3-.3.3-.6-.1-.6-1 0-2 1.9-2.6 4.8-1.5 1.3.4 2.9.5 3.5.2zm50.2-.4c.3.6-.1.7-.9.4-1.8-.7-2.1-1.4-.7-1.4.6 0 1.3.4 1.6 1zm94.8-.3c-.7.2-2.1.2-3 0-1-.3-.4-.5 1.2-.5 1.7 0 2.4.2 1.8.5zm-228.8 2c.6 1.7.7 1.7 2.1-.1.8-1.1 1.4-1.4 1.4-.7s.4 1 .9.7c.5-.4.4.5-.2 1.9-1.3 2.7-6.2 3.3-5.2.7.3-.8 0-2.1-.6-2.8-.7-.9-.8-1.4-.1-1.4.5 0 1.3.8 1.7 1.7zm14.5-.2c0 .6-.3 1-.7 1-.5 0-1.3.4-2 .8-.9.5-4.3-1.5-4.3-2.6 0-.1 1.6-.2 3.5-.2s3.5.5 3.5 1zm263.6 3.2c-.7.7-2.6-.7-2.6-1.9 0-.6.6-.6 1.5.2.9.7 1.3 1.5 1.1 1.7zm-239.6.4c0 .6.5.7 1 .4 1.3-.8 7 .4 7 1.4 0 .5-2.6 1.1-5.7 1.4-3.2.3-7 .9-8.5 1.2-2.3.4-2.8.2-2.8-1.3 0-1.1 1.1-2.2 2.8-2.8 3.7-1.4 6.2-1.5 6.2-.3zm13.5-.1c.3.5.2 1-.4 1-.5 0-1.3-.5-1.6-1-.3-.6-.2-1 .4-1 .5 0 1.3.4 1.6 1zm-34.7 1.2c-.2.9.8 1.2 3 1 1.7-.2 3.2 0 3.2.4 0 1.4-3.3 4.4-5 4.4-.9 0-2 .4-2.5.9-.6.6-1.7.4-2.9-.5-1.8-1.3-1.8-1.4-.2-1.4 1.1 0 1.6-.6 1.4-1.8-.4-1.7 1-4.1 2.5-4.2.4 0 .6.6.5 1.2zM242.2 189c3.3 1.2 3.9 1.2 5.7-.4 2-1.8 2.1-1.7 6.3 2.7 4.4 4.6 8.2 6.3 10.7 4.7.9-.5 1.9-.3 2.8.6 1.7 1.6 4.3 1.9 4.3.3 0-2.5 1.6.2 1.8 3.1.2 3 0 3.2-2.2 2.8-1.4-.3-3.7.3-5.2 1.3l-2.7 1.7 2.7 2.7c2.3 2.3 3.2 2.5 7.7 2.1 2.8-.3 5.3-.7 5.6-1 .3-.3 1.1.1 1.8.8.8.8 3.3 1.2 6.3 1 3.8-.2 5.5.3 7.1 1.7 1.8 1.7 2.4 1.8 6 .6 2.3-.9 4.5-1.1 5.4-.5.9.4 6.6 1.2 12.9 1.7 6.2.5 12.4 1.4 13.8 2 2.2.9 2.1 1-1.1.5-2.6-.4-4.1-.1-5.3 1.2-1 .9-2.1 1.3-2.4.8-.4-.5-1.8-1-3.2-1.1-1.4-.1-1.9.1-1.2.3 1.3.6 1.7 3.4.5 3.4-.5 0-1.8.3-3.1.6-2.1.6-2.2.5-1.1-2 .7-1.4 1-2.8.8-3-.9-.9-11.9-.9-12.1 0-.2.5 1.1 1 2.7 1.2 5.8.5 7.5 1.2 6.9 2.7-.7 1.7-2.5 2.1-2.1.4.1-.6-.4-1.4-1.2-1.7-.8-.2-1.1 0-.8.6.9 1.4-3.4 2.3-5 1-1.3-1.1-8.6-1.4-10.2-.4-.5.4-2.2.1-3.8-.5-1.5-.6-3.9-1.2-5.3-1.3-2.1-.1-2.5-.6-2.5-3.1 0-2.4-.4-2.9-2-2.7-4.9.7-6.3 1.3-6.8 3.2-.4 1.7-1.3 2-5.6 2-3.4 0-5.1.4-5.1 1.2 0 1-.2 1-.9 0-.4-.7-2.3-1.3-4.2-1.3-1.9 0-5.8-.2-8.6-.5-4.9-.6-5.2-.8-4.7-2.9.4-1.8.1-2.5-1.5-3-3.8-1.2-5.6 1.7-2.5 4 1.3.9-.3 1.2-8.2 1.2-5.5.1-14 .4-19 .8-8.6.7-13.6-.1-13.3-2.3.4-2.3-.3-3.3-1.8-2.8-1 .3-2.4.2-3.2-.3-2.2-1.4.7-2.6 6.7-2.7 2.9-.1 5.6-.4 5.9-.7.3-.4 1.4-.2 2.4.4 1.5.7 1.9.6 1.9-.6 0-1.1 1-1.4 4.4-1.2 2.5.1 4.8.5 5.1.9.4.3 1.9.2 3.5-.2 1.6-.5 3.8-.6 5-.3 1.1.3 2 0 2-.6 0-.8 2.2-1.2 6.3-1.1 12.2 0 11.4.1 9.5-1.1-1-.5-1.8-1.6-1.8-2.4 0-1-1.6-1.3-6.2-1.3-8.2.1-11.7-.6-13.2-2.8-1.2-1.5-1.7-1.6-4.5-.4-1.7.7-3.5.9-3.9.6-1.1-1.2 2.9-3.1 7.6-3.6 5-.6 5.6-1.9 1.8-4-2.5-1.4-2.8-1.4-4.5.6l-1.8 2.2-1.3-2.2c-.7-1.1-1-1.8-.6-1.5.3.3 2.7-.4 5.2-1.6 5-2.4 10.8-2.6 16.6-.5zm-30 2.2c-.9.9-1.2.7-1.2-1.2s.3-2.1 1.2-1.2c.9.9.9 1.5 0 2.4zm-20.1 2.2l-1.6 3.3-2.4-1.9c-1.5-1.1-3.3-1.6-4.5-1.3-2 .6-2 .5-.2-.6 1.1-.7 3.3-1.4 5-1.6 1.6-.1 3.2-.5 3.4-.8 1.6-1.5 1.7-.1.3 2.9zM79 192c0 .5-.7.7-1.5.4-.8-.4-1.5-.8-1.5-1 0-.2.7-.4 1.5-.4s1.5.4 1.5 1zm69.5 0c.3.5 1.2.7 2 .3 1-.3 1.5.1 1.5 1.1 0 4.5-5.9 5.3-7.8 1.1-.6-1.3-.9-2.5-.7-2.7.8-.8 4.5-.6 5 .2zm10.5 1.5c0 2.1-2.8 2.5-3.3.5-.3-1-.3-2.1 0-2.4.9-.8 3.3.6 3.3 1.9zm16.2-1c1.4 1.8.8 4.5-.8 4.5-1.3 0-1.4-.3-.5-1.4.9-1.1.9-1.6 0-2.2-.7-.4-1.9.2-3 1.4-1.4 1.8-1.9 1.9-2.8.8-.9-1.1-.7-1.8 1.1-3 2.4-1.7 4.8-1.7 6-.1zM23.5 194c-.3.5-1.2 1-1.8 1-.7 0-.6-.4.3-1 1.9-1.2 2.3-1.2 1.5 0zm193.5 6.2c0 .5-.4.9-1 .9-1.3.2-2.9.6-3.5.9-1.7.9-3.2.3-4.7-2-2.3-3.2-2.3-4.8 0-5.2 1.7-.4 9.1 4 9.2 5.4zm64-4.8c0 2.3-1.6 2.7-1.7.5-.1-1 .2-1.9.8-1.9.5 0 .9.6.9 1.4zM8 197c0 .5-1 1-2.2.9-2.2 0-2.2-.1-.3-.9 1.1-.5 2.1-.9 2.3-.9.1-.1.2.3.2.9zm103 1c0 1.1.7 2.3 1.5 2.6 2.2.9 1.8 2.2-.7 3-1.3.4-2.5.7-2.8.6-.3 0-1.3.4-2.2.9-1 .6-1.9.5-2.3-.1-.3-.5.8-1.6 2.5-2.5 3.1-1.6 3.2-3.5.3-3.5-1.3 0-1.3-.3-.3-1.5 1.8-2.1 4-1.9 4 .5zm183.5 0c-1.7 1.8-1.7 2.1-.2 3.8 1.5 1.6 1.5 1.9-.4 3-2.3 1.5-4.3.6-3.5-1.5.4-.9.1-2.1-.6-2.7-.7-.6-1.1-1-.9-.9.2.2 1-.6 1.8-1.7s2.4-2 3.5-2c2 0 2.1.1.3 2zm-198.8.5c1.4-.3 2.2-.2 1.9.4-.3.5-.3 1.6 0 2.5.5 1.2 1 1.4 1.9.6 1-.8 1.7-.5 2.9 1.1 1.5 2.2 1.2 4.4-.5 3.4-.5-.4-.9-.1-.9.5 0 .7-.7 1-1.5.6-.8-.3-1.5-.1-1.5.4 0 .6-.9 1-1.9 1-1.1 0-2.3.5-2.6 1.1-.4.6-1.3.8-2.1.5-.7-.3-1.6 0-2 .5-.4.7-1 .7-1.7 0-1.6-1.6-2.7-1.3-2 .5.3.9 1.3 1.4 2.4 1.1 1.1-.3 2.1-.2 2.3.2.8 1.3-.9 2.9-3.7 3.7-2.6.6-2.8.4-2.5-1.6.2-1.7-.5-2.7-2.6-4-1.6-.9-3.2-2.2-3.4-2.9-.3-.8 0-1.1.6-.7.5.3 1.3-.1 1.6-1 .4-1 1.3-1.3 2.6-.9 1.4.5 2 .2 2-.9 0-1.2-1.1-1.6-4.5-1.6-2.5 0-4.5-.5-4.5-1.1 0-.5.5-.7 1-.4.6.4 1.7.2 2.4-.5.8-.6 2.5-.8 3.8-.5 1.7.4 2.9 0 4.2-1.4 1.5-1.6 2.3-1.8 3.8-1 1.1.6 3.1.8 4.5.4zM287 198c0 .5-.7 1-1.6 1-.8 0-1.2-.5-.9-1 .3-.6 1-1 1.6-1 .5 0 .9.4.9 1zm-266 1c0 .5-1.2 1-2.7 1-2.2 0-2.5-.2-1.3-1 2-1.3 4-1.3 4 0zm177 .1c0 .4 1.5.9 3.3 1.1l3.2.3-3.2 1.7c-1.8.9-3.5 1.2-3.8.7-.7-1.1-9.6-.9-11.2.3-.6.5-1.4.5-1.7-.1-.7-1 .5-2 4.3-3.7 2.8-1.2 9.1-1.4 9.1-.3zm107.6 2c1.1.9 1.1 1.5.3 2.5-.6.8-1.5 1.2-1.9.9-.5-.3-1 .2-1.2 1.2-.4 1.9-4.8 2.6-4.8.7 0-.7.5-1.6 1-1.9.6-.3 1-1.7 1-3 0-1.9.4-2.3 2.1-2 1.2.2 2.7 1 3.5 1.6zm-235.1.9c.3.5-.1 1-.9 1-.9 0-1.6-.5-1.6-1 0-.6.4-1 .9-1 .6 0 1.3.4 1.6 1zm218.5 2c0 1.3-1.2 1.9-2.6 1.3-2.1-.8-1.7-1.9.6-1.9 1.1 0 2 .3 2 .6zm112.8 1.6c2 .3 2.8 1.4 1 1.4-.9 0-3-.3-4.9-.7-2.7-.5-3-.8-1.4-1.3 1.1-.4 2.5-.5 3-.2.6.4 1.6.7 2.3.8zm-282.1 0c-.3.3-1.2.4-1.9.1-.8-.3-.5-.6.6-.6 1.1-.1 1.7.2 1.3.5zm-43.7 7c1.1 2.4 2.4 4.4 3 4.4.6 0 .8.4.5 1-.9 1.4-6.2 1.2-6.3-.3-.1-2.7-1.2-6.1-2.2-7.1-1.5-1.5-1.2-2.2 1.1-2.3 1.5-.1 2.5.9 3.9 4.3zm111.9-2c-.6.8-.8 1.4-.3 1.4.4 0-.2.9-1.4 2.1-1.2 1.1-2 2.4-1.7 3 1 1.6-.4 1-2.5-1.1-1.6-1.6-2.8-1.9-6.5-1.3-3.2.4-4.5.2-4.5-.6s1.1-1.1 2.8-.9c1.9.2 3-.3 3.7-1.6.7-1.3 2.3-2 4.9-2.3 2.2-.1 4.1-.5 4.4-.8 1.1-1.1 2.2.8 1.1 2.1zm172.9-1.7c.7.1 1.1.5.7 1-.7 1.2-4.4.6-5.9-.9-.7-.7-.3-.9 1.4-.6 1.4.2 3.1.5 3.8.5zm-260.1 5.3c-3.5 1-7.9.9-7.2-.2.3-.6 1.9-1 3.5-1s3.2-.5 3.6-1.1c.4-.8.9-.7 1.5.2.6 1 .2 1.6-1.4 2.1zm68.1 1.5c-.1 1 .1 2.4.6 3.1 1.2 1.9-.2 2.8-2.2 1.5-.9-.6-1.6-1.8-1.4-2.7.2-.9-.3-1.6-1-1.7-.7 0-.4-.4.7-.9 3-1.3 3.7-1.2 3.3.7zm182.1 4.2c.8.5 1.1 1.6.7 2.7-.5 1.3-.9 1.5-1.8.6-1.4-1.4-3.2-1.6-2.4-.3.3.5-.1 1.1-.9 1.5-2.1.8-1.9-2.4.3-4 2-1.6 2.3-1.6 4.1-.5zm-9.3 4.8c-.7.7-2.6-.7-2.6-1.9 0-.6.6-.6 1.5.2.9.7 1.3 1.5 1.1 1.7zm14.4.7c0 1.1-1.9 1.5-2.5.6-.3-.5.1-1 .9-1 .9 0 1.6.2 1.6.4zm-104.6 2.5c.3.5-.1 1.4-.9 2.1-.8.7-1.5 1-1.5.7 0-.3-.3-1.2-.6-2.1-.7-1.7 2-2.3 3-.7zM291 230c.6 1.1 1.7 2 2.5 2 2.4 0 1.7 2-1.1 3-3.3 1.3-3.3 1.3-2.7-.8.4-1.6-.1-1.8-3.1-1.4-2.2.3-3.6 0-3.6-.7 0-.6.9-1.1 2-1.1s2.3-.7 2.6-1.5c.8-2.1 2.1-1.9 3.4.5zm-43.5 1.9c.3.5.1 1.2-.5 1.6-.5.3-1-.1-1-.9 0-1.8.6-2.1 1.5-.7zm57.5-.5c0 .9-3 1.4-3.5.6-.4-.6.3-1 1.4-1 1.2 0 2.1.2 2.1.4zm3.6 2.1c-.3 2-2 2-2.4.1-.2-.9.3-1.6 1.1-1.6.9 0 1.4.7 1.3 1.5zm-101.6.4c0 1.4-1.4 2.1-4.9 2.5-2.5.3-3.1 0-3.1-1.5s.8-1.9 4-1.9c2.2 0 4 .4 4 .9zm-37.7 3.3c2.2 1.1 2.2 1.2-.7 1.9-3.6 1-5 .3-3.3-1.6 1.5-1.8 1.4-1.7 4-.3zm15.5 1.5c.2.7-.4 1.3-1.3 1.3s-1.3-.5-1-1c.4-.6-.6-1-2.4-1-1.6 0-3.2-.4-3.5-.8-.3-.5 1.4-.6 3.6-.3 2.3.3 4.3 1.2 4.6 1.8zm-77.5.2c-.9 1.1-2.2 1.7-2.9 1.4-2.8-1.1-1-3 2.8-3.2 1.7-.1 1.7 0 .1 1.8zm198.4-1.3c-.3.3-1.2.4-1.9.1-.8-.3-.5-.6.6-.6 1.1-.1 1.7.2 1.3.5zm-195.5 4.6c-.7.7-1.2.8-1.2.2 0-1.4 1.2-2.6 1.9-1.9.2.3-.1 1.1-.7 1.7zm4.8-.8c0 .3-.4.8-1 1.1-.5.3-1 .1-1-.4 0-.6.5-1.1 1-1.1.6 0 1 .2 1 .4zm27 .7c0 1.1-2.7 1.2-3.4.1-.2-.4.4-.9 1.5-.9 1-.1 1.9.2 1.9.8zm40.6 2.6c1.9 2.5 1.7 3.2-.6 2.6-1.1-.3-1.7-1-1.4-1.7.3-.6-.1-.4-.8.5-1.3 1.6-1.5 1.5-3.6-.1-2.1-1.7-2.1-1.9-.5-2.8 2.3-1.3 5.2-.7 6.9 1.5zm-43.1 3.4c1 1.5-.1 2.3-2 1.5-.9-.3-1.3-1-1-1.6.8-1.3 2.2-1.3 3 .1zm12.5-.1c0 .5-.5 1-1.1 1-.5 0-.7-.5-.4-1 .3-.6.8-1 1.1-1 .2 0 .4.4.4 1zm219.5 1.1c-.4.5-1.8.9-3.3.9l-2.7-.1 2.5-1.3c2.5-1.5 4.5-1.2 3.5.5zm-209 10.6c-.5 1-.7 2.1-.7 2.5.4 1.6-1.6.7-2.2-.9-.5-1.1-.1-2.2 1-3 2.1-1.6 2.9-1 1.9 1.4zm166.9.1c.3.5-.1.9-.9.9s-1.5-.4-1.5-.9c0-.4.4-.8.9-.8.6 0 1.2.4 1.5.8zm50.1 2.6c1.9-.3 1.9-.2.2 1.1-1.5 1.1-2.5 1.1-4.3.3-1.7-.8-2.1-1.4-1.2-1.9.7-.4 1.7-.4 2.3 0 .5.5 1.9.7 3 .5zm-213 .6c.3.5.1 1-.4 1-.6 0-1.1-.5-1.1-1 0-.6.2-1 .4-1 .3 0 .8.4 1.1 1zm-71.9 3.7c-1 1-1.9-.5-1-1.8.6-1.1.8-1.1 1.2 0 .2.7.1 1.5-.2 1.8zM90 266c0 .5-.5 1-1.1 1-.5 0-.7-.5-.4-1 .3-.6.8-1 1.1-1 .2 0 .4.4.4 1zm281.7.2c2.9 1.3 3.3 3.4.9 5-.7.5-.5 1.3.7 2.5 1.4 1.5 1.9 1.6 2.6.4.6-.9 2.2-1.2 4.9-.9 2.2.2 3.8 0 3.6-.4-.3-.5.2-.8 1-.8 1 0 1.3.6 1 1.5-.4 1 0 1.5 1.5 1.5 2.4 0 2.6.9.7 3.5-1.3 1.8-1.4 1.8-2-.3-.5-1.4-1.2-1.9-2.3-1.5-.9.4-1.9-.1-2.5-1-1.1-2.1-4.2-2.2-5.8-.2-.7.9-1.7 1.2-2.4.7-.6-.4-2.1-.7-3.3-.6-2.3.1-4-2.6-2.8-4.6.6-1-1.3-1.5-4.7-1.2-1.8.2-2.5-2.7-1.1-4.1 1.1-1.1 6.9-.8 10 .5zM170 267.9c0 .5-.6 1.1-1.3 1.4-.8.3-1.4-.1-1.4-.9s.6-1.4 1.4-1.4c.7 0 1.3.4 1.3.9zm212 .5c0 .3-.4.8-1 1.1-.5.3-1 .1-1-.4 0-.6.5-1.1 1-1.1.6 0 1 .2 1 .4zm-26.5 1.6c.3.5.2 1-.4 1-.5 0-1.3-.5-1.6-1-.3-.6-.2-1 .4-1 .5 0 1.3.4 1.6 1zM138 279c-.8.5-1.7.7-1.9.4-.3-.3.1-.9.9-1.4.8-.5 1.7-.7 1.9-.4.3.3-.1.9-.9 1.4zm210.7-1.4c-.4.4-1.7 1.2-2.9 1.9-1.3.6-2.2 1.9-2.2 2.8.1.9-.3 1.7-1 1.7-.6 0-1.2-1.5-1.3-3.3-.3-3.3-.2-3.4 3.9-3.5 2.3-.1 3.8.1 3.5.4zm26.6 2.4c.7.9 1.5 1.8 2 1.9.4 0 .7.4.7.8 0 1-7.3.4-8.3-.7-.5-.4-.6-1.7-.3-2.8.8-2.4 4-1.9 5.9.8zm-9.9-1.1c.3.5 0 1.1-.8 1.4-1.5.6-2.6-.1-2.6-1.5 0-1.1 2.7-1 3.4.1zm-120.4.5c0 .3-.4.8-1 1.1-.5.3-1 .1-1-.4 0-.6.5-1.1 1-1.1.6 0 1 .2 1 .4zm-64.3 7.7c-2.1.3-4.3 1.1-4.8 1.6-1.4 1.4-4.9.5-4.3-1.1.3-.7 2.6-1.3 5.2-1.5 2.5-.1 4.8-.4 5.1-.6.2-.3.9-.1 1.5.3.6.3-.6.9-2.7 1.3zm43.3 18.4c-6.7 1.7-7.7 1.8-6.4.6 1-1.1 4.6-1.8 8.9-1.9 2 0 1.2.4-2.5 1.3zm155.4 4.4c.3.4-.6.6-1.9.3-1.8-.3-2.5 0-2.5 1.2 0 2.1-.9 2-4-.4l-2.5-2h5.2c2.8 0 5.4.4 5.7.9zM202 311c0 .5-.7.7-1.5.4-.8-.4-1.5-.8-1.5-1 0-.2.7-.4 1.5-.4s1.5.4 1.5 1zm174 6c0 .5-.7.7-1.5.4-.8-.4-1.2-1-.9-1.5.6-1.1 2.4-.2 2.4 1.1zm-178.2 1.2c.4 2.1-3.7 3.5-4.9 1.7-.6-.9-.3-1.8.8-2.7 2.1-1.5 3.7-1.1 4.1 1zm-7.3 1.8c.3.5-.1 1-.9 1-.9 0-1.6-.5-1.6-1 0-.6.4-1 .9-1 .6 0 1.3.4 1.6 1zm210 0c.3.5-.3 1-1.5 1s-1.8-.5-1.5-1c.3-.6 1-1 1.5-1s1.2.4 1.5 1z"/><path d="M236.9 101.7c-.1.5-.1 1.1 0 1.5 0 .5-.3.8-.9.8-.5 0-1-.5-1-1 0-1.8-1.8-1.1-2.3.9-.3 1.2.1 2.2 1.1 2.6.8.3 1.2.8.8 1.2-.7.7 2.3 4.3 3.6 4.3.5 0 .4-.9-.2-2-.8-1.5-.7-2.5.4-4.1.8-1.2 1.2-2.8.9-3.5-.5-1.5-2.2-1.9-2.4-.7z"/><path d="M240.3 105.7c-1.6.6-1.7 4.3-.2 4.3 1.6 0 4.1-2.9 3.4-4-.7-1.1-1.3-1.1-3.2-.3zM233 190c0 .5.7 1 1.6 1 .8 0 1.2-.5.9-1-.3-.6-1-1-1.6-1-.5 0-.9.4-.9 1zM233 194c0 .5.7 1 1.6 1 .8 0 1.2-.5.9-1-.3-.6-1-1-1.6-1-.5 0-.9.4-.9 1zM253.1 194.4c-1.1 1.3-1.1 2-.3 2.8 1.5 1.5 2.4.5 2-2.3-.3-2.1-.4-2.1-1.7-.5zM241.6 196.7c-.6 1.4-.5 1.5.5.6.7-.7 1-1.5.7-1.8-.3-.3-.9.2-1.2 1.2zM257 198c0 .5.5 1 1 1 .6 0 1-.5 1-1 0-.6-.4-1-1-1-.5 0-1 .4-1 1zM254 205.6c0 .7 1.4 1.7 3 2.3 3 1 4 0 2.2-2.4-1-1.4-5.2-1.4-5.2.1zM230 213.9c0 1.1.4 2.1.9 2.1 1.8 0 2.1-1.8.6-3-1.3-1-1.5-.9-1.5.9zM264.4 213.1c-.3.6-1.4.7-2.5.4-1.3-.4-1.9-.2-1.9.9 0 2 1.3 2.7 3 1.6.9-.5 1.9-.5 2.6.1.9.7 1.6.5 2.3-.9.9-1.6.7-2.1-.9-2.5-1.1-.3-2.3-.1-2.6.4zM209 200.1c0 .5.5.7 1 .4.6-.3 1-.8 1-1.1 0-.2-.4-.4-1-.4-.5 0-1 .5-1 1.1zM89.9 201c-.3 2-.5 2.5-1.4 4-1.6 2.5-1.5 4.1.3 3.7.9-.2 1.6-.9 1.5-1.5-.2-.7.6-2.1 1.7-3.2 1.2-1.2 1.8-2.5 1.5-3-.8-1.3-3.5-1.3-3.6 0zM23.1 101.9c-1 1-3.5 2.1-5.5 2.5-4.6.9-4.9 3.5-.3 3.4 3.4-.1 7.1-2 6-3.1-.3-.4.3-.7 1.4-.7 1.6 0 2 .5 1.6 2-.4 1.6-.2 1.9 1.1 1.4 1-.4 1.5-1.3 1.2-2-.3-.7-.1-1.6.5-2 1.6-.9.5-2.7-1.9-3.1-1.2-.1-3 .5-4.1 1.6zM30.5 112c-.3.5-.1 1 .4 1 .6 0 1.1-.5 1.1-1 0-.6-.2-1-.4-1-.3 0-.8.4-1.1 1zM12.5 114c-.3.5-.1 1 .4 1 .6 0 1.1-.5 1.1-1 0-.6-.2-1-.4-1-.3 0-.8.4-1.1 1zM41.8 114.1c-2.4 1.3-2.3 2.9.2 2.9 1.3 0 2-.7 2-2 0-2.3.1-2.3-2.2-.9zM46.7 114.7c-1 1-.8 2.3.4 2.3.5 0 .8-.4.5-.9-.4-.5 0-1.2.6-1.4.7-.3.8-.6.2-.6-.6-.1-1.4.2-1.7.6zM14.4 115.8c-1.6 1.1-1.1 7.7.5 7.7 2.1 0 3.3-5.4 1.7-7-.7-.7-1.7-1-2.2-.7zM18.7 120.1c-.3 1.2 0 2.2.9 2.6.8.3 1.2.9.9 1.3-.6.9 2 2.1 2.9 1.3.6-.6-1.9-5.9-3.3-6.7-.5-.3-1.1.3-1.4 1.5zM363.6 118.8c-.3.6-.1 1.4.5 1.7 1.4.9 2 .2 1-1.4-.6-.8-1.1-.9-1.5-.3zM356 120c0 .5.7 1 1.6 1 .8 0 1.2-.5.9-1-.3-.6-1-1-1.6-1-.5 0-.9.4-.9 1zM369.5 121c-.3.5.1 1 .9 1 .9 0 1.6-.5 1.6-1 0-.6-.4-1-.9-1-.6 0-1.3.4-1.6 1zM20.6 129.2c.1 1.3.3 2.6.3 3 .1.5.6.8 1.2.8.8 0 .8-.4 0-1.4-.8-1-.9-1.6-.1-2.1.6-.3.8-1.1.5-1.6-1.1-1.7-2.2-.9-1.9 1.3zM353.4 130.5c1.9 1.4 3.6 1.2 3.6-.6 0-.5-1.2-.9-2.7-.9-2.7.1-2.7.1-.9 1.5zM24.5 140c-.3.5-.1 1 .4 1 .6 0 1.1-.5 1.1-1 0-.6-.2-1-.4-1-.3 0-.8.4-1.1 1zM25 161c0 .5.5 1 1.1 1 .5 0 .7-.5.4-1-.3-.6-.8-1-1.1-1-.2 0-.4.4-.4 1zM17 162.1c0 .5.5.9 1.2.9.6 0 2 .7 3 1.7 1.7 1.5 1.8 1.5 1.8 0v-2.4c0-.4-1.3-.8-3-.9-1.6-.1-3 .2-3 .7zM26.6 170.5c-1.1.8-1.5 1.5-.9 1.5s1.6-.7 2.3-1.5c1.6-1.9 1.1-1.9-1.4 0zM28.1 176.6c-1.2 1.4-1.2 1.7 0 2.5 2.2 1.4 6.6 1 7.2-.5.4-1-.5-1.8-2.5-2.5-1.7-.6-3.1-1.1-3.2-1.1-.1.1-.7.8-1.5 1.6zM376 178c0 .5.5 1 1.1 1 .5 0 .7-.5.4-1-.3-.6-.8-1-1.1-1-.2 0-.4.4-.4 1zM16.5 179c-1.2 2 .5 2.9 3.5 1.8 4.4-1.5 4.6-2.8.6-2.8-1.9 0-3.8.4-4.1 1zM48.9 196.3c1.4 1.7.4 2.7-2.5 2.7-4.5 0-12.4 2.3-12.4 3.7 0 .7.6 1.2 1.3 1 .6-.1 1.1.6 1.1 1.5-.2 1.5.6 1.8 5 1.6 5.5-.2 6.6-1 6.6-4.6 0-3.2 2.4-2.3 2.8 1.1.2 1.5.6 2.7 1 2.7 1.5 0 3.6-1.9 2.9-2.6-.4-.4-.2-1.3.4-2.1.9-1 .5-1.9-1.7-3.8-3.1-2.7-6.5-3.6-4.5-1.2zM11 204c-.8.5-1.8.6-2.2.4-.4-.3-.8-.1-.8.5 0 1.1 1.9 2.5 3.5 2.6 1.3.1 3.5-1.5 3.5-2.5 0-1.3-2.6-1.9-4-1zM56.4 204.7c.3.6 0 1.3-.6 1.6-.7.2-1 .8-.5 1.2.4.5 1.3.3 1.9-.3.9-.9.9-1.5-.1-2.5-.9-.8-1.2-.8-.7 0zM1.5 208c.3.5.8 1 1.1 1 .2 0 .4-.5.4-1 0-.6-.5-1-1.1-1-.5 0-.7.4-.4 1zM41.7 207.7c-.4.3-.7 1.1-.7 1.7 0 .6.5.5 1.2-.2.6-.6.9-1.4.7-1.7-.3-.3-.9-.2-1.2.2zM51.5 208c-.4.7-.2 1.6.6 2.1 1.8 1.1 2.3.4 1.1-1.7-.7-1.2-1.1-1.3-1.7-.4zM12 210c0 .5.5 1 1.1 1 .5 0 .7-.5.4-1-.3-.6-.8-1-1.1-1-.2 0-.4.4-.4 1zM5.5 210.9c-.3.5.4 1.1 1.6 1.3 1.3.2 2.3 1.1 2.5 2.2.4 2.9 2.4 4.5 2.4 1.9 0-1.2-.4-2.4-1-2.8-.5-.3-.7-1.2-.3-2 .4-1.1-.2-1.5-2-1.5-1.4 0-2.8.4-3.2.9zM49.7 212.1c.5 1.9 2.8 2.6 3.7 1 .3-.4-.5-1.3-1.8-1.9-2.1-.9-2.3-.8-1.9.9zM54.6 217.9c-.4.5-.2 1.2.3 1.5.5.4 1.2.2 1.5-.3.4-.5.2-1.2-.3-1.5-.5-.4-1.2-.2-1.5.3zM120.5 222c-.3.5.1 1 1 1s1.3-.5 1-1c-.3-.6-.8-1-1-1-.2 0-.7.4-1 1zM112.5 224c.3.5.8 1 1.1 1 .2 0 .4-.5.4-1 0-.6-.5-1-1.1-1-.5 0-.7.4-.4 1zM65 232c0 .5.5 1 1 1 .6 0 1-.5 1-1 0-.6-.4-1-1-1-.5 0-1 .4-1 1zM266 232c0 .5.5 1 1 1 .6 0 1-.5 1-1 0-.6-.4-1-1-1-.5 0-1 .4-1 1zM274 239.9c0 1.7 1.8 2.1 2.4.6.3-.9 0-1.5-.9-1.5-.8 0-1.5.4-1.5.9zM51.7 242.7c-.4.6-1.6.9-2.9.8-2.6-.3-4.8 1.1-4.8 3 0 1 .9 1.1 3.4.5 1.9-.4 3.7-.6 3.9-.4.2.3 1-.3 1.7-1.1.9-1.1 1-1.9.3-2.6-.6-.6-1.3-.7-1.6-.2zM57.5 244c.3.5.8 1 1.1 1 .2 0 .4-.5.4-1 0-.6-.5-1-1.1-1-.5 0-.7.4-.4 1zM125 246.5c0 .8.7 1.5 1.6 1.5 1.4 0 1.4-.3.4-1.5-.7-.8-1.4-1.5-1.6-1.5-.2 0-.4.7-.4 1.5zM91.3 252.6c-1.8.9-3 2.1-2.7 2.6.3.5 1.1.5 1.9-.2.9-.8 1.5-.8 2 0 .3.5 1.1 1 1.6 1 .6 0 .8-.4.5-.9-.3-.5.1-1.2 1-1.5.8-.3 1.2-1 .9-1.6-.8-1.3-1.4-1.2-5.2.6zM83.5 255c.3.5.8 1 1.1 1 .2 0 .4-.5.4-1 0-.6-.5-1-1.1-1-.5 0-.7.4-.4 1zM73.3 255.8c-1.6.5-2 1.1-1.4 2.1.5.8 1.1.9 1.5.3.3-.6 1.5-.8 2.6-.5 1.1.3 2 0 2-.6 0-.5.7-.8 1.5-.5.8.4 1.5.1 1.5-.5 0-1.2-4.1-1.3-7.7-.3zM266.2 257.7c.2 1 1.1 1.7 2.1 1.7.9-.1 1.7.2 1.7.6 0 .5.9.6 2 .3 4.3-1.1 1.6-4.3-3.7-4.3-1.8 0-2.4.5-2.1 1.7zM276.3 256.7c-1.4.5-1.8 3.3-.5 3.4 5.2.4 10.4.4 10.7-.1.9-1.4-1.3-3-3.6-2.6-1.3.2-3.1 0-3.9-.4-.8-.4-2.1-.5-2.7-.3zM197.8 258.8c-1 .2-1.8.7-1.8 1.2s-.2 1.4-.5 2.2c-.4 1 .4 1.3 3.2 1.2 5.2-.3 5-.2 5.6-1.8.6-1.6-3.7-3.5-6.5-2.8zM215.6 259.2c.3.5 1 .6 1.5.3 1.3-.9 1.1-1.2-.6-1.2-.8 0-1.2.4-.9.9zM310 259.9c0 .5.6 1.3 1.3 1.9 1.5 1.3 4.2-.1 3.3-1.7-.8-1.3-4.6-1.5-4.6-.2zM184 261c0 1.3 1.8 2.2 2.4 1.1.3-.5-.1-1.1-.9-1.5-.8-.3-1.5-.1-1.5.4zM254.7 264c-2.6 1.6-2.7 1.8-.8 2.3 1.1.3 2.5-.1 3.2-.9 1.9-2.3.5-3.2-2.4-1.4zM212.3 263.7c-1.6.6-1.7 4.3-.2 4.3.7 0 1.8.8 2.5 1.7 1.3 1.7 1.4 1.7 2-.4.3-1.3 1-2.1 1.4-1.8.5.3 1.1.1 1.4-.4 1.1-1.7 8.6 2.7 8.6 5 0 1.3.5 1.9 1.3 1.5.6-.2 2.9-1 5-1.7 3-1 3.7-1.7 3.7-3.8 0-1.4-.4-3.1-.8-3.6-.8-1.2-18.6-1.4-19.7-.3-.4.4-1.5.4-2.4-.1-.9-.5-2.2-.6-2.8-.4zM239.9 264.6c-1.2 1.5-.4 3.4 1.5 3.4 1.2 0 5.4-3.8 4.5-4.1-2.2-.7-5.1-.4-6 .7zM274 263.9c0 .6.4 1.3 1 1.6.6.3.7-.1.4-.9-.7-1.8-1.4-2.1-1.4-.7zM277 263.8c0 .5.7.9 1.5.9s1.2-.4.9-.9c-.3-.4-.9-.8-1.5-.8-.5 0-.9.4-.9.8zM295.4 265.1c-.4.7 2 1.9 3.7 1.9.5 0 .9-.6.9-1.4 0-1.5-3.7-1.8-4.6-.5zM69.6 266.5c.4.8 1 1.2 1.5.9 1.1-.6.2-2.4-1.1-2.4-.5 0-.7.7-.4 1.5zM132.6 267.5c-.3.9.1 1.8 1 2.2 1.9.7 2.6 0 1.8-2.1-.8-2-2-2.1-2.8-.1zM303 267.1c0 .5.5.7 1 .4.6-.3 1-.8 1-1.1 0-.2-.4-.4-1-.4-.5 0-1 .5-1 1.1zM333 266.5c0 1.5 1.8 4 2.4 3.4.3-.3-.1-1.4-.9-2.5-.8-1-1.4-1.5-1.5-.9zM388.7 266.6c-1.2 1.2.4 2.4 3.1 2.4 2.6-.1 2.6-.1.8-1.5-2.2-1.7-3-1.8-3.9-.9zM194 268.4c0 .7-.9 1.6-2 1.9-2.4.6-2.7 3.2-.4 4.1 2.1.8 3.4-.1 3.4-2.5 0-1 .4-1.9.9-1.9s1.1-.7 1.5-1.5c.4-1-.1-1.5-1.4-1.5-1.1 0-2 .6-2 1.4zM327 268c0 .5.5 1 1.1 1 .5 0 .7-.5.4-1-.3-.6-.8-1-1.1-1-.2 0-.4.4-.4 1zM138 269c0 .5.5 1 1 1 .6 0 1-.5 1-1 0-.6-.4-1-1-1-.5 0-1 .4-1 1zM125.5 271c.3.5.8 1 1.1 1 .2 0 .4-.5.4-1 0-.6-.5-1-1.1-1-.5 0-.7.4-.4 1zM137.7 271.6c-.8.8.1 2.4 1.4 2.4.5 0 .9-.7.9-1.5 0-1.5-1.2-2-2.3-.9zM274.3 277c-.1 1.1.4 2.1 1 2.1 5.4.6 6.2.3 6.2-1.6 0-1.6-.8-2.1-3.5-2.3-3-.2-3.6 0-3.7 1.8zM119 280.1c0 .5.5.7 1 .4.6-.3 1-.8 1-1.1 0-.2-.4-.4-1-.4-.5 0-1 .5-1 1.1zM315 280c0 .5.5 1 1 1 .6 0 1-.5 1-1 0-.6-.4-1-1-1-.5 0-1 .4-1 1zM110.8 281.2c-.3.7-.3 2.1 0 3.1.4 1.6 1.1 1.8 3.6 1.2 1.7-.4 4-.8 5-.9 1.1-.2 2.2-.9 2.4-1.6.3-.9-.1-1.1-1.4-.5-2.9 1.2-6.8.7-8-1.1-.9-1.2-1.3-1.2-1.6-.2zM103 282.5c0 .8.5 1.5 1 1.5.6 0 1-.7 1-1.5s-.4-1.5-1-1.5c-.5 0-1 .7-1 1.5zM300.5 281.9c-1.2 1.1-.3 1.8 2.3 1.7 3.3-.1 3.7-1.9.4-2.1-1.3 0-2.5.1-2.7.4zM93 284c0 .5.5 1 1.1 1 .5 0 .7-.5.4-1-.3-.6-.8-1-1.1-1-.2 0-.4.4-.4 1zM154.5 286c-.3.5-1.5 1-2.6 1-1.2 0-1.9.5-1.6 1.2.2.7 1.4 1.3 2.6 1.2 1.1 0 2.1.3 2.1.7 0 1.2-3.2 2-4.4 1-.7-.6-2.3.1-4.6 2.1-2.9 2.4-3.1 2.9-1.3 2.5 1.2-.3 2.3-.1 2.5.4.2.5 1.6.2 3.1-.6 1.6-.8 4.2-1.6 5.8-1.7 2.9-.2 4.2-2.8 1.4-2.8-1.1 0-1.4-.7-.9-2.4.6-2.4-1-4.4-2.1-2.6zM253.7 286.7c-.4.3-.7 1.1-.7 1.7 0 .6.5.5 1.2-.2.6-.6.9-1.4.7-1.7-.3-.3-.9-.2-1.2.2zM139 289.4c0 1.5 3.7 3.2 4.7 2.2.3-.3.3-1.2 0-2.1-.8-1.9-4.7-2-4.7-.1zM130.6 289.8c-.3.3-.3.9 0 1.3.7 1.2 5.4 1.2 5.4 0 0-1-4.7-2.1-5.4-1.3zM260.1 291.6c0 1.1.3 1.4.6.6.3-.7.2-1.6-.1-1.9-.3-.4-.6.2-.5 1.3zM135 295.9c0 1.5 1.8 2.3 2.5 1.2.3-.6 1.2-.8 2-.4.8.3 1.5 0 1.5-.6s-1.3-1.1-3-1.1c-1.6 0-3 .4-3 .9zM276.9 301.4c-.5 2.3-.2 3.3 1.5 4.9 2.4 2.2 4.8 1.9 5.2-.6.2-1.5-.2-1.8-2.2-1.3-1.7.5-2.4.2-2.4-.8 0-1.4-1.9-3.3-2.1-2.2zM413.5 302c-.3.5.1 1 1 1s1.3-.5 1-1c-.3-.6-.8-1-1-1-.2 0-.7.4-1 1zM243.5 304c-.3.5-1.2.7-1.9.4-.7-.3-1.6.2-2 1.1-.5 1.3 0 1.5 3.2.9 4.4-.8 4.6-.9 3.7-2.3-.8-1.4-2.2-1.4-3-.1zM267 304c0 .5.5 1 1 1 .6 0 1-.5 1-1 0-.6-.4-1-1-1-.5 0-1 .4-1 1zM287 304.9c0 .6.4 1.3 1 1.6.6.3.7-.1.4-.9-.7-1.8-1.4-2.1-1.4-.7zM295.6 304.8c-.3.3-.6 1.1-.6 1.9 0 1.7 2.4 1.7 3.9-.1.9-1.1.7-1.5-.8-1.9-1.1-.3-2.2-.2-2.5.1zM251 306.1c0 .5.5.7 1 .4.6-.3 1-.8 1-1.1 0-.2-.4-.4-1-.4-.5 0-1 .5-1 1.1zM336.5 308c.3.5 1.3 1 2.1 1s1.4-.5 1.4-1c0-.6-.9-1-2.1-1-1.1 0-1.7.4-1.4 1zM351.9 309.4c1.6 1.9 6.5 2.2 5.9.3-.3-.6-2-1.3-3.8-1.5-3-.3-3.2-.2-2.1 1.2zM154.5 310.9c-.3.5-.1 1.2.5 1.6 1.2.7 3-.2 3-1.6 0-1.2-2.7-1.2-3.5 0zM296 314.6c0 .8.7 1.4 1.6 1.4 1.1 0 1.3.6.9 1.9-.8 2.5 1 3.5 6 3.3 7-.4 9.3-1.2 9-3-.2-.9-.4-2.1-.4-2.6-.1-.4-1.2-.1-2.5.7-2.1 1.4-2.5 1.4-4.2-.4-2.4-2.4-10.4-3.4-10.4-1.3zM235 320c0 .5.5 1 1 1 .6 0 1-.5 1-1 0-.6-.4-1-1-1-.5 0-1 .4-1 1zM183.6 329.9c-.4.7-.5 1.5-.2 1.8.9.9 1.9-.4 1.4-1.8-.4-1.1-.6-1.1-1.2 0zM129.7 334.1c-3.1 1.8-2.1 3.9 1.8 3.6 4.2-.4 5.2-1.2 3.3-2.9-1.8-1.7-3-1.9-5.1-.7z"/></svg>